<svg version="1.1" id="Layer_1" xmlns="http://www.w3.org/2000/svg" xmlns:xlink="http://www.w3.org/1999/xlink" x="0px" y="0px"
	 width="100%" viewBox="0 0 200 200" enable-background="new 0 0 200 200" xml:space="preserve">
<path fill="#FEFEFE" opacity="1.000000" stroke="none" 
	d="
M115.000000,201.000000 
	C76.690323,201.000000 38.880650,201.000000 1.035486,201.000000 
	C1.035486,134.398697 1.035486,67.797363 1.035486,1.098018 
	C67.559509,1.098018 134.119202,1.098018 200.839447,1.098018 
	C200.839447,67.666359 200.839447,134.333145 200.839447,201.000000 
	C172.464310,201.000000 143.982162,201.000000 115.000000,201.000000 
M86.926193,92.888557 
	C86.926193,92.888557 86.779556,92.850357 87.295868,92.765198 
	C87.534950,92.520454 87.774025,92.275711 87.963646,91.851402 
	C87.963646,91.851402 87.936577,91.667114 88.740456,91.226616 
	C90.951065,91.568779 93.175560,92.224663 95.366714,92.127609 
	C96.554192,92.075020 98.730782,90.655205 98.677803,89.995300 
	C98.196754,84.003067 97.322029,78.042427 96.503777,71.611031 
	C93.432945,71.457771 89.978798,71.347206 86.534729,71.097672 
	C82.343018,70.793976 78.159798,70.373283 74.288940,69.373665 
	C76.925720,64.892838 79.562492,60.412014 82.161263,55.995773 
	C87.276009,57.539120 91.971916,58.956089 96.778709,60.406509 
	C97.040245,59.510448 97.272774,59.063011 97.288559,58.608051 
	C97.592529,49.851204 97.923706,41.094711 98.130676,32.335346 
	C98.221695,28.483448 96.013176,29.697693 94.589737,30.117678 
	C94.589737,39.491436 94.589737,48.307140 94.589737,57.468681 
	C91.513466,56.565380 88.568703,55.967445 85.847427,54.833302 
	C82.535622,53.453037 80.161530,53.556274 78.869705,57.394859 
	C77.895348,60.290131 75.873039,61.428959 72.753929,61.010338 
	C70.673210,60.731083 68.524651,60.957306 66.715721,60.957306 
	C63.706799,53.628117 68.195763,49.070225 72.224884,44.363052 
	C64.870018,46.991306 62.990948,52.576839 65.421364,63.578178 
	C68.414993,63.578178 71.500801,63.578178 75.876282,63.578178 
	C73.271767,66.600662 71.423431,68.745613 69.113647,71.423477 
	C71.941750,72.296059 74.769859,73.168640 77.767151,74.093430 
	C77.767151,75.461441 77.767151,77.363647 77.767151,79.353088 
	C77.011604,79.255379 76.504662,79.259003 76.040833,79.119408 
	C69.557121,77.167999 61.379967,77.444794 60.806114,67.576538 
	C60.791821,67.330711 58.886887,67.194832 57.555847,67.149750 
	C57.487587,67.238701 57.344204,67.354507 57.364666,67.411728 
	C57.435577,67.610062 57.563442,67.788025 57.876564,68.528641 
	C58.330795,69.134705 58.785023,69.740776 59.210136,70.967796 
	C59.426952,71.308334 59.643768,71.648880 60.234974,72.616295 
	C61.281315,74.381493 61.945301,77.165871 63.443073,77.727776 
	C68.706024,79.702240 74.255669,80.912506 79.947556,82.482040 
	C80.111023,80.538597 80.219315,79.251114 80.742065,77.426331 
	C80.834114,76.061722 80.926170,74.697121 81.852379,73.141510 
	C85.237740,73.377266 88.623108,73.613014 92.059647,74.543831 
	C93.017632,75.363762 93.975609,76.183693 95.104614,77.907753 
	C94.978119,81.267509 94.851631,84.627274 94.084618,88.133507 
	C93.729240,88.865730 93.373863,89.597954 92.280022,90.697533 
	C90.928520,90.645073 89.577011,90.592606 88.085068,89.764076 
	C86.296013,86.395287 85.815193,86.297607 83.899071,89.542564 
	C83.534569,90.026039 83.170067,90.509514 82.184677,91.123650 
	C82.762978,92.750092 83.341286,94.376541 84.072586,96.662674 
	C84.016296,97.107140 83.960007,97.551613 83.099876,98.000549 
	C82.026421,98.012558 80.952972,98.024574 79.351837,97.522644 
	C76.148544,86.530693 76.148544,86.530693 66.591179,85.369339 
	C64.519974,85.389503 62.448772,85.409668 60.377567,85.429825 
	C60.415054,86.518394 60.306057,88.520889 60.512711,88.554016 
	C62.554722,88.881302 64.648735,88.923843 66.728851,88.940056 
	C67.143715,88.943283 67.562111,88.492523 68.827888,88.145721 
	C70.241707,88.273315 71.655518,88.400917 73.294624,88.797920 
	C73.490021,88.943672 73.709610,89.015717 74.558228,89.283287 
	C74.725090,90.139252 74.891953,90.995209 75.026581,92.455162 
	C75.296661,92.965996 75.566742,93.476830 76.163651,94.653900 
	C76.692169,96.764786 77.220688,98.875664 77.227715,101.023888 
	C76.821014,101.313545 76.414322,101.603203 75.573265,102.164642 
	C75.402489,102.167107 75.231712,102.169579 74.695869,101.458015 
	C73.243713,101.075569 71.791565,100.693123 70.600616,100.133446 
	C70.600616,100.133446 70.803017,100.366653 70.023186,100.209824 
	C69.420448,100.785744 68.817711,101.361664 68.214973,101.937592 
	C69.316788,102.897911 70.418594,103.858231 71.921394,105.364296 
	C74.023201,108.976776 74.375519,114.718575 81.846947,112.984818 
	C82.560104,114.175079 83.784149,115.322479 83.888298,116.563835 
	C84.173172,119.959557 83.986404,123.394844 83.986404,126.787430 
	C88.718513,126.787430 92.893402,126.787430 97.095062,126.787430 
	C97.095062,118.059280 97.095062,109.670677 97.095062,100.973518 
	C95.407707,100.973518 93.934853,100.992775 92.462730,100.968124 
	C90.977264,100.943253 89.492538,100.874825 87.935760,100.277847 
	C87.419594,99.846222 86.903419,99.414589 86.221283,98.157433 
	C86.275452,96.759888 86.329613,95.362350 86.696991,93.649780 
	C86.863853,93.380302 86.901894,93.093697 86.926193,92.888557 
M144.107925,64.261078 
	C143.788330,63.457737 143.468750,62.654392 143.222046,61.809395 
	C143.222046,61.809395 143.255173,61.732285 143.311417,60.967964 
	C142.625351,59.308342 141.710602,57.704624 141.289078,55.980331 
	C137.624832,40.991280 118.463867,28.668545 103.171249,29.824392 
	C103.171249,34.194103 103.171249,38.613571 102.995125,43.950165 
	C103.056587,52.962173 103.118042,61.974182 102.999733,71.910004 
	C103.077759,85.960419 103.155777,100.010841 103.067963,114.970581 
	C103.067963,118.881058 103.067963,122.791527 103.067963,127.117508 
	C109.378998,127.117508 114.999580,127.297630 120.590530,126.970802 
	C121.756966,126.902611 123.600899,125.086594 123.795914,123.863007 
	C125.262787,114.659325 128.798111,106.443268 134.182037,98.849953 
	C136.539917,95.524475 138.099808,91.633194 140.237671,87.788139 
	C140.237671,87.788139 140.198029,87.489304 140.765610,87.008141 
	C141.965164,82.987099 143.164734,78.966064 144.676651,74.326881 
	C144.668625,73.869316 144.660599,73.411743 144.839783,72.505867 
	C144.839783,72.505867 144.705627,72.038925 144.874344,71.291077 
	C144.804535,70.533890 144.734741,69.776711 144.844620,68.316536 
	C144.577087,67.193115 144.309570,66.069687 144.107925,64.261078 
M124.452583,144.707748 
	C124.287735,144.141403 124.122887,143.575058 123.869675,142.260056 
	C123.910149,141.509460 123.950615,140.758850 124.631744,139.739761 
	C125.765396,138.825027 126.899048,137.910309 128.526505,136.592636 
	C128.005203,135.361252 127.483902,134.129852 127.204865,132.183960 
	C126.348053,131.331299 125.499695,129.745331 124.633163,129.735352 
	C110.311417,129.570297 95.987343,129.617767 81.663902,129.577835 
	C79.264221,129.571136 78.185196,130.422394 79.021843,133.605270 
	C79.018631,134.077698 79.015419,134.550140 78.526695,135.624527 
	C76.257507,139.430405 76.395760,146.194672 78.826714,149.906403 
	C77.304092,156.322571 77.991577,157.650406 83.002350,158.485565 
	C83.004951,158.662277 83.007545,158.838974 82.567764,159.437988 
	C85.225204,167.145645 92.770294,172.547516 101.488297,172.984070 
	C111.788727,173.499863 119.748390,168.770752 123.844589,159.526398 
	C122.857735,159.335541 121.928154,159.155746 121.140671,158.246979 
	C122.201233,157.764969 123.261787,157.282959 124.813255,156.811523 
	C125.143684,156.813171 125.471191,156.844910 126.602707,156.962677 
	C127.367073,156.201157 128.131439,155.439651 128.895813,154.678146 
	C127.595154,154.129913 126.294495,153.581680 124.954460,153.038162 
	C124.954460,153.038162 124.916397,153.052139 125.349335,152.487030 
	C128.185913,149.862762 127.585968,148.066391 123.934143,146.327271 
	C123.958000,145.887115 123.981865,145.446960 124.452583,144.707748 
M85.259361,50.147572 
	C84.977264,44.337261 84.695168,38.526955 84.413078,32.716644 
	C83.817917,32.754475 83.222755,32.792301 82.627586,32.830132 
	C82.403442,36.513180 82.179298,40.196228 81.917870,44.491989 
	C79.474083,42.539337 77.473282,40.940647 75.270111,39.180256 
	C74.141083,40.371792 73.106270,41.463898 71.379242,43.286541 
	C77.126480,41.886795 79.359108,44.950684 81.610550,48.255550 
	C82.347816,49.337765 83.792114,49.938316 85.259361,50.147572 
M72.475243,98.377663 
	C72.530342,98.162277 72.585442,97.946884 72.640533,97.731491 
	C72.504837,97.869965 72.369141,98.008430 72.475243,98.377663 
z"/>
<path fill="#F19629" opacity="1.000000" stroke="none" 
	d="
M103.171249,43.033035 
	C103.171249,38.613571 103.171249,34.194103 103.171249,29.824392 
	C118.463867,28.668545 137.624832,40.991280 141.289078,55.980331 
	C141.710602,57.704624 142.625351,59.308342 142.882706,61.426285 
	C141.292480,60.828152 139.675461,59.986877 139.055557,58.674576 
	C137.253036,54.858788 134.805374,54.329525 132.131500,57.338718 
	C130.628632,56.162701 129.156540,55.010757 127.872383,53.552559 
	C128.763367,52.847237 129.571533,52.560352 130.144943,52.022976 
	C131.018738,51.204132 132.148880,50.293156 132.348892,49.262001 
	C132.463760,48.669777 130.830643,47.047585 130.211334,47.158310 
	C129.160172,47.346241 128.193192,48.448803 127.369209,49.333176 
	C126.614510,50.143181 126.095703,51.172974 125.163544,52.160675 
	C124.597672,52.526211 124.341209,52.836983 124.124924,53.136703 
	C124.165100,53.125652 124.181183,53.207424 123.888512,53.129753 
	C123.395805,53.024963 123.195763,52.997841 122.991135,52.598465 
	C122.559708,47.584057 119.909950,49.353615 118.083794,49.299469 
	C115.393143,47.869762 112.702492,46.440060 110.005371,44.582870 
	C110.006775,42.447006 110.014648,40.738632 110.146385,38.732796 
	C109.320206,37.325905 108.370163,36.216476 107.420105,35.107044 
	C106.978241,36.312271 106.156082,37.520882 106.166756,38.722092 
	C106.197189,42.146492 106.566658,45.567883 106.613464,49.005249 
	C106.424194,49.020042 106.047302,49.066067 105.683708,48.986080 
	C104.603828,46.948406 103.887543,44.990719 103.171249,43.033035 
z"/>
<path fill="#0F1A36" opacity="1.000000" stroke="none" 
	d="
M120.998573,158.975967 
	C121.928154,159.155746 122.857735,159.335541 123.844589,159.526398 
	C119.748390,168.770752 111.788727,173.499863 101.488297,172.984070 
	C92.770294,172.547516 85.225204,167.145645 83.250595,159.307343 
	C96.288475,159.109802 108.643524,159.042892 120.998573,158.975967 
z"/>
<path fill="#F2B532" opacity="1.000000" stroke="none" 
	d="
M140.022049,87.998833 
	C138.099808,91.633194 136.539917,95.524475 134.182037,98.849953 
	C128.798111,106.443268 125.262787,114.659325 123.795914,123.863007 
	C123.600899,125.086594 121.756966,126.902611 120.590530,126.970802 
	C114.999580,127.297630 109.378998,127.117508 103.067963,127.117508 
	C103.067963,122.791527 103.067963,118.881058 103.415222,114.650238 
	C104.508530,114.556931 105.254570,114.783958 106.001709,115.416748 
	C106.001526,116.905632 106.000259,117.988762 105.883804,119.366333 
	C104.804848,124.764465 108.406540,121.445045 110.165901,122.085785 
	C110.608459,121.151733 110.833374,120.058098 111.457657,118.974106 
	C114.102303,117.651436 116.392570,116.387550 118.571945,114.954948 
	C119.516296,114.334175 120.335548,113.444748 121.028603,112.537537 
	C122.211441,110.989189 123.417900,109.417236 124.305847,107.696014 
	C125.375099,105.623322 126.999947,103.309761 126.823311,101.233246 
	C126.471558,97.097984 125.052841,93.053467 124.394737,89.097870 
	C125.912079,91.031006 127.109573,92.837746 128.585342,95.064331 
	C129.673737,94.185814 130.697205,93.359695 131.720688,92.533577 
	C131.069077,92.690170 130.417465,92.846764 129.765854,93.003365 
	C129.173569,91.658928 128.581299,90.314499 127.992386,88.641479 
	C127.997978,87.874733 128.000214,87.436562 128.346863,87.035980 
	C130.790100,87.385544 132.888931,87.697525 134.989151,88.380066 
	C135.216278,89.728676 135.442017,90.706726 135.755096,92.063278 
	C137.465302,90.434242 138.743668,89.216537 140.022049,87.998833 
z"/>
<path fill="#D7F4F9" opacity="1.000000" stroke="none" 
	d="
M128.032700,136.995590 
	C126.899048,137.910309 125.765396,138.825027 124.308182,139.517639 
	C124.211418,134.176025 120.999542,138.216125 120.609200,137.926208 
	C120.748283,140.502258 120.838875,143.453323 121.109924,146.387726 
	C121.186539,147.217178 121.790863,147.997894 122.153168,148.800964 
	C122.776627,148.195221 123.400078,147.589478 124.023529,146.983734 
	C127.585968,148.066391 128.185913,149.862762 124.804680,152.761322 
	C120.166939,152.692703 116.073853,152.349808 111.669746,151.970337 
	C110.560646,151.438187 109.762558,150.942627 108.554932,150.192749 
	C108.915260,152.253937 109.202957,153.899612 109.606033,156.205322 
	C110.713737,154.883789 111.351845,154.122498 112.208466,153.100525 
	C112.516449,156.729538 112.060760,157.106003 109.313629,157.012283 
	C105.154854,156.870377 100.969498,157.202820 96.831619,156.875854 
	C94.607811,156.700119 92.459442,155.569565 90.001053,154.781372 
	C87.976357,157.784241 87.499268,157.868256 84.972290,154.586365 
	C84.864662,153.686920 84.760025,153.108978 84.655388,152.531021 
	C84.495117,152.538376 84.334854,152.545715 84.174583,152.553070 
	C84.123611,153.341614 84.072639,154.130157 83.907364,155.223083 
	C83.526573,156.336426 83.260078,157.145401 82.993576,157.954376 
	C77.991577,157.650406 77.304092,156.322571 78.872620,149.496201 
	C78.918518,149.085999 79.031410,148.964920 79.392105,148.934540 
	C80.355003,147.538345 80.957207,146.172546 81.586411,144.745499 
	C82.168800,144.864029 83.044044,145.042145 84.976082,145.435333 
	C83.203590,142.687729 82.032997,140.873154 81.234238,139.007843 
	C83.478821,138.291733 85.351562,137.626358 87.224297,136.960983 
	C87.738304,137.289932 88.252312,137.618881 88.766319,137.947845 
	C83.941185,141.069107 84.579521,143.839386 87.977692,146.615189 
	C88.371613,146.936951 88.011139,148.182251 87.944138,148.863724 
	C87.803131,148.679871 87.718399,148.631699 87.633667,148.583527 
	C87.755577,148.722534 87.877487,148.861542 88.000404,149.312042 
	C88.164589,150.188629 88.327759,150.753769 88.490921,151.318893 
	C89.350777,150.521942 90.210632,149.724991 91.327950,148.972244 
	C91.751511,149.069107 91.917603,149.121780 92.339073,149.423706 
	C96.408356,150.553238 100.222260,151.433502 104.654564,152.456497 
	C104.788460,151.094360 104.953270,149.417679 105.393234,147.860397 
	C105.828392,148.099747 105.988396,148.219666 106.263367,148.485474 
	C106.570633,148.797852 106.788895,148.916702 107.458717,148.998413 
	C115.605637,149.243027 117.925804,146.421906 116.388443,138.700500 
	C116.905708,135.934875 118.085846,134.444412 120.773148,135.036652 
	C123.218155,135.575485 125.614761,136.333939 128.032700,136.995590 
z"/>
<path fill="#F5F7F9" opacity="1.000000" stroke="none" 
	d="
M79.879517,98.036591 
	C80.952972,98.024574 82.026421,98.012558 83.591690,98.428696 
	C84.083504,100.125977 84.083504,101.395111 84.083504,103.129639 
	C88.043594,103.129639 91.465439,103.129639 94.884033,103.129639 
	C94.884033,110.677330 94.884033,117.746475 94.884033,124.808060 
	C91.832878,124.808060 89.094254,124.808060 86.067680,124.808060 
	C86.067680,121.702194 85.892036,118.883095 86.103828,116.093422 
	C86.560951,110.072342 86.642326,110.078522 80.618401,110.973190 
	C75.718063,111.512917 75.703453,107.909317 74.327614,105.161339 
	C76.744934,104.192932 78.722366,103.400749 80.687935,102.613319 
	C80.391418,100.934631 80.135468,99.485611 79.879517,98.036591 
z"/>
<path fill="#F8AB20" opacity="1.000000" stroke="none" 
	d="
M140.129852,87.893486 
	C138.743668,89.216537 137.465302,90.434242 135.755096,92.063278 
	C135.442017,90.706726 135.216278,89.728676 135.260223,88.154289 
	C134.403107,83.618500 134.182205,79.033577 131.941025,75.888115 
	C128.419235,70.945305 123.535988,66.972542 119.387276,62.293694 
	C120.907280,60.621872 122.269241,59.245377 124.027016,57.910233 
	C127.641968,60.133919 130.861115,62.316261 134.299942,64.647537 
	C134.044144,65.404839 133.561630,66.833298 132.791458,69.113388 
	C138.244049,67.190651 139.400970,69.451820 139.170105,73.659966 
	C139.129990,74.391052 141.008743,75.227409 142.002625,76.437057 
	C141.402039,80.402412 140.800034,83.945862 140.198029,87.489304 
	C140.198029,87.489304 140.237671,87.788139 140.129852,87.893486 
z"/>
<path fill="#1D2135" opacity="1.000000" stroke="none" 
	d="
M69.575089,70.890564 
	C71.423431,68.745613 73.271767,66.600662 75.876282,63.578178 
	C71.500801,63.578178 68.414993,63.578178 65.421364,63.578178 
	C62.990948,52.576839 64.870018,46.991306 72.224884,44.363052 
	C68.195763,49.070225 63.706799,53.628117 66.715721,60.957306 
	C68.524651,60.957306 70.673210,60.731083 72.753929,61.010338 
	C75.873039,61.428959 77.895348,60.290131 78.869705,57.394859 
	C80.161530,53.556274 82.535622,53.453037 85.847427,54.833302 
	C88.568703,55.967445 91.513466,56.565380 94.589737,57.468681 
	C94.589737,48.307140 94.589737,39.491436 94.589737,30.117678 
	C96.013176,29.697693 98.221695,28.483448 98.130676,32.335346 
	C97.923706,41.094711 97.592529,49.851204 97.288559,58.608051 
	C97.272774,59.063011 97.040245,59.510448 96.778709,60.406509 
	C91.971916,58.956089 87.276009,57.539120 82.161263,55.995773 
	C79.562492,60.412014 76.925720,64.892838 73.783813,69.844757 
	C72.044151,70.507431 70.809624,70.698997 69.575089,70.890564 
z"/>
<path fill="#E9FCFF" opacity="1.000000" stroke="none" 
	d="
M88.000420,148.999390 
	C88.011139,148.182251 88.371613,146.936951 87.977692,146.615189 
	C84.579521,143.839386 83.941185,141.069107 88.766319,137.947845 
	C88.252312,137.618881 87.738304,137.289932 87.224297,136.960983 
	C85.351562,137.626358 83.478821,138.291733 81.010262,138.914291 
	C80.123573,138.668961 79.980782,138.390503 79.995468,137.696716 
	C79.673988,136.579086 79.343102,135.800827 79.012207,135.022568 
	C79.015419,134.550140 79.018631,134.077698 79.289749,133.286896 
	C79.709915,133.047058 79.862183,133.125610 80.094727,133.351685 
	C80.441025,133.432892 80.707047,133.366562 81.430328,133.222076 
	C85.603035,133.199341 89.318466,133.254761 93.188156,133.490540 
	C93.884850,133.548508 94.427292,133.426147 95.371536,133.226303 
	C96.859375,133.202148 97.945412,133.255493 99.120819,133.443787 
	C99.210190,133.578751 99.654991,133.635864 99.654991,133.635864 
	C99.654991,133.635864 99.976433,133.297379 100.427383,133.215607 
	C103.934128,133.191620 106.989906,133.249420 110.129089,133.442535 
	C110.212494,133.577820 110.647438,133.641983 110.647438,133.641983 
	C110.647438,133.641983 110.962044,133.310349 111.424583,133.227661 
	C116.912285,133.062805 121.937447,132.980637 126.962608,132.898468 
	C127.483902,134.129852 128.005203,135.361252 128.279602,136.794113 
	C125.614761,136.333939 123.218155,135.575485 120.773148,135.036652 
	C118.085846,134.444412 116.905708,135.934875 116.149185,138.420380 
	C110.717628,134.847916 108.326210,134.973114 103.702332,139.019104 
	C102.882011,139.013123 102.413208,139.012024 101.889954,138.634460 
	C101.339394,137.554153 100.843277,136.850342 100.347168,136.146530 
	C99.679268,138.135956 99.011368,140.125397 98.215752,142.495255 
	C96.883133,140.895477 95.716560,139.118668 94.165611,137.790833 
	C93.381844,137.119797 91.902603,137.261093 90.561562,137.189896 
	C90.495117,137.882202 90.604919,138.419708 90.783432,139.341324 
	C90.809967,140.503342 90.767792,141.281281 90.504974,142.352509 
	C90.550995,144.754562 90.817673,146.863312 91.058838,148.969574 
	C91.033333,148.967072 91.070488,148.928055 91.070488,148.928055 
	C90.210632,149.724991 89.350777,150.521942 88.490921,151.318893 
	C88.327759,150.753769 88.164589,150.188629 88.000710,149.311752 
	C88.000000,149.000000 88.000420,148.999390 88.000420,148.999390 
z"/>
<path fill="#262A3E" opacity="1.000000" stroke="none" 
	d="
M69.344368,71.157021 
	C70.809624,70.698997 72.044151,70.507431 73.625793,70.159531 
	C78.159798,70.373283 82.343018,70.793976 86.534729,71.097672 
	C89.978798,71.347206 93.432945,71.457771 96.503777,71.611031 
	C97.322029,78.042427 98.196754,84.003067 98.677803,89.995300 
	C98.730782,90.655205 96.554192,92.075020 95.366714,92.127609 
	C93.175560,92.224663 90.951065,91.568779 88.354248,91.376358 
	C87.968048,91.526108 88.045738,91.404297 88.171783,91.205132 
	C88.297836,91.005966 88.225510,90.540146 88.225510,90.540146 
	C89.577011,90.592606 90.928520,90.645073 92.872414,90.791168 
	C93.884918,89.918884 94.305031,88.952957 94.725143,87.987030 
	C94.851631,84.627274 94.978119,81.267509 95.121033,77.041534 
	C94.094452,75.399803 93.051460,74.624283 92.008469,73.848763 
	C88.623108,73.613014 85.237740,73.377266 81.087952,73.349106 
	C80.324883,75.025688 80.326248,76.494659 80.327606,77.963638 
	C80.219315,79.251114 80.111023,80.538597 79.947556,82.482040 
	C74.255669,80.912506 68.706024,79.702240 63.443073,77.727776 
	C61.945301,77.165871 61.281315,74.381493 60.065155,71.989433 
	C59.676643,71.023994 59.457947,70.685417 59.239250,70.346840 
	C58.785023,69.740776 58.330795,69.134705 57.853249,68.016037 
	C57.829937,67.503433 57.863731,67.007675 57.863731,67.007675 
	C58.886887,67.194832 60.791821,67.330711 60.806114,67.576538 
	C61.379967,77.444794 69.557121,77.167999 76.040833,79.119408 
	C76.504662,79.259003 77.011604,79.255379 77.767151,79.353088 
	C77.767151,77.363647 77.767151,75.461441 77.767151,74.093430 
	C74.769859,73.168640 71.941750,72.296059 69.344368,71.157021 
z"/>
<path fill="#1E2336" opacity="1.000000" stroke="none" 
	d="
M88.045738,91.404297 
	C88.045738,91.404297 87.968048,91.526108 87.952316,91.596611 
	C87.936577,91.667114 87.963646,91.851402 87.709427,91.961159 
	C87.229988,92.330734 87.004776,92.590546 86.779556,92.850357 
	C86.779556,92.850357 86.926193,92.888557 86.662369,92.966362 
	C86.191856,93.347809 86.186935,93.654694 86.383781,93.964806 
	C86.329613,95.362350 86.275452,96.759888 86.223267,98.893265 
	C86.819336,100.027893 87.413406,100.426689 88.007484,100.825485 
	C89.492538,100.874825 90.977264,100.943253 92.462730,100.968124 
	C93.934853,100.992775 95.407707,100.973518 97.095062,100.973518 
	C97.095062,109.670677 97.095062,118.059280 97.095062,126.787430 
	C92.893402,126.787430 88.718513,126.787430 83.986404,126.787430 
	C83.986404,123.394844 84.173172,119.959557 83.888298,116.563835 
	C83.784149,115.322479 82.560104,114.175079 81.423309,112.608635 
	C80.999390,111.837669 80.999100,111.442886 80.998810,111.048103 
	C86.642326,110.078522 86.560951,110.072342 86.103828,116.093422 
	C85.892036,118.883095 86.067680,121.702194 86.067680,124.808060 
	C89.094254,124.808060 91.832878,124.808060 94.884033,124.808060 
	C94.884033,117.746475 94.884033,110.677330 94.884033,103.129639 
	C91.465439,103.129639 88.043594,103.129639 84.083504,103.129639 
	C84.083504,101.395111 84.083504,100.125977 83.993614,98.426460 
	C83.960007,97.551613 84.016296,97.107140 84.092590,95.955727 
	C83.676910,93.830185 83.241234,92.411591 82.805565,90.992996 
	C83.170067,90.509514 83.534569,90.026039 84.283638,89.305389 
	C85.794052,89.846916 86.919891,90.625603 88.045738,91.404297 
z"/>
<path fill="#F5A228" opacity="1.000000" stroke="none" 
	d="
M142.001221,76.015144 
	C141.008743,75.227409 139.129990,74.391052 139.170105,73.659966 
	C139.400970,69.451820 138.244049,67.190651 132.791458,69.113388 
	C133.561630,66.833298 134.044144,65.404839 134.299942,64.647537 
	C130.861115,62.316261 127.641968,60.133919 124.212494,57.642696 
	C125.229576,56.175480 126.457008,55.017147 127.684433,53.858810 
	C129.156540,55.010757 130.628632,56.162701 132.131500,57.338718 
	C134.805374,54.329525 137.253036,54.858788 139.055557,58.674576 
	C139.675461,59.986877 141.292480,60.828152 142.854584,61.808449 
	C143.255173,61.732285 143.222046,61.809395 143.136963,62.257294 
	C143.349731,64.793610 143.647552,66.882019 144.124710,68.990814 
	C144.304047,69.011185 144.664932,69.019524 144.664932,69.019524 
	C144.734741,69.776711 144.804535,70.533890 144.665405,71.749672 
	C144.279388,72.508278 144.344757,72.756912 144.652557,72.954178 
	C144.660599,73.411743 144.668625,73.869316 144.246399,74.654266 
	C143.211151,75.326141 142.606186,75.670639 142.001221,76.015144 
z"/>
<path fill="#061029" opacity="1.000000" stroke="none" 
	d="
M127.083740,132.541214 
	C121.937447,132.980637 116.912285,133.062805 111.195923,133.142761 
	C110.504723,133.140533 110.045692,133.307236 110.045692,133.307236 
	C106.989906,133.249420 103.934128,133.191620 100.190155,133.132355 
	C99.345123,133.190216 99.188278,133.249512 99.031441,133.308823 
	C97.945412,133.255493 96.859375,133.202148 95.053680,133.126846 
	C93.900642,133.173309 93.467270,133.241760 93.033897,133.310211 
	C89.318466,133.254761 85.603035,133.199341 81.197250,133.133194 
	C80.506889,133.122467 80.014442,133.204147 80.014442,133.204147 
	C79.862183,133.125610 79.709915,133.047058 79.303230,132.932800 
	C78.185196,130.422394 79.264221,129.571136 81.663902,129.577835 
	C95.987343,129.617767 110.311417,129.570297 124.633163,129.735352 
	C125.499695,129.745331 126.348053,131.331299 127.083740,132.541214 
z"/>
<path fill="#EEFDFE" opacity="1.000000" stroke="none" 
	d="
M84.975273,154.907883 
	C87.499268,157.868256 87.976357,157.784241 90.001053,154.781372 
	C92.459442,155.569565 94.607811,156.700119 96.831619,156.875854 
	C100.969498,157.202820 105.154854,156.870377 109.313629,157.012283 
	C112.060760,157.106003 112.516449,156.729538 112.208466,153.100525 
	C111.351845,154.122498 110.713737,154.883789 109.606033,156.205322 
	C109.202957,153.899612 108.915260,152.253937 108.554932,150.192749 
	C109.762558,150.942627 110.560646,151.438187 112.072327,151.988312 
	C115.410599,156.413498 119.473915,156.204895 123.718170,155.546768 
	C123.851532,155.526077 124.117958,156.363541 124.322350,156.800949 
	C123.261787,157.282959 122.201233,157.764969 121.069626,158.611481 
	C108.643524,159.042892 96.288475,159.109802 83.471786,159.096191 
	C83.007545,158.838974 83.004951,158.662277 82.997971,158.219971 
	C83.260078,157.145401 83.526573,156.336426 84.145981,155.241165 
	C84.498886,154.954880 84.975273,154.907883 84.975273,154.907883 
z"/>
<path fill="#F7D933" opacity="1.000000" stroke="none" 
	d="
M106.000610,115.010986 
	C105.254570,114.783958 104.508530,114.556931 103.498146,114.195580 
	C103.155777,100.010841 103.077759,85.960419 103.296417,71.453415 
	C103.593094,70.996819 104.006973,71.007629 104.003448,71.450417 
	C104.865952,74.543175 101.975716,78.124512 106.013870,80.458832 
	C106.013756,92.289070 106.007179,103.650024 106.000610,115.010986 
z"/>
<path fill="#202536" opacity="1.000000" stroke="none" 
	d="
M80.618401,110.973190 
	C80.999100,111.442886 80.999390,111.837669 81.000580,112.528542 
	C74.375519,114.718575 74.023201,108.976776 71.606117,104.788475 
	C71.174866,103.801918 71.058891,103.391190 71.294601,102.864670 
	C72.784500,102.556602 73.922722,102.364326 75.060936,102.172043 
	C75.231712,102.169579 75.402489,102.167107 76.078491,102.058548 
	C76.972214,101.630493 77.360710,101.308525 77.749207,100.986549 
	C77.220688,98.875664 76.692169,96.764786 76.030746,94.018715 
	C75.618172,92.872742 75.338493,92.361961 75.058823,91.851173 
	C74.891953,90.995209 74.725090,90.139252 74.199921,88.937393 
	C73.605965,88.303413 73.348541,88.282417 73.069336,88.528511 
	C71.655518,88.400917 70.241707,88.273315 67.974686,88.111420 
	C65.698326,88.004692 64.275162,87.932266 62.851994,87.859848 
	C62.847443,87.350685 62.842896,86.841522 62.838345,86.332359 
	C64.221451,86.162636 65.604553,85.992920 66.987656,85.823196 
	C76.148544,86.530693 76.148544,86.530693 79.615677,97.779617 
	C80.135468,99.485611 80.391418,100.934631 80.687935,102.613319 
	C78.722366,103.400749 76.744934,104.192932 74.327614,105.161339 
	C75.703453,107.909317 75.718063,111.512917 80.618401,110.973190 
z"/>
<path fill="#262A3E" opacity="1.000000" stroke="none" 
	d="
M85.086212,50.453354 
	C83.792114,49.938316 82.347816,49.337765 81.610550,48.255550 
	C79.359108,44.950684 77.126480,41.886795 71.379242,43.286541 
	C73.106270,41.463898 74.141083,40.371792 75.270111,39.180256 
	C77.473282,40.940647 79.474083,42.539337 81.917870,44.491989 
	C82.179298,40.196228 82.403442,36.513180 82.627586,32.830132 
	C83.222755,32.792301 83.817917,32.754475 84.413078,32.716644 
	C84.695168,38.526955 84.977264,44.337261 85.086212,50.453354 
z"/>
<path fill="#F0AD34" opacity="1.000000" stroke="none" 
	d="
M104.006973,71.007629 
	C104.006973,71.007629 103.593094,70.996819 103.386299,70.991501 
	C103.118042,61.974182 103.056587,52.962173 103.083191,43.491600 
	C103.887543,44.990719 104.603828,46.948406 105.679123,49.446480 
	C106.030289,55.650681 106.022438,61.314499 105.653412,67.043732 
	C104.863808,68.408646 104.435394,69.708138 104.006973,71.007629 
z"/>
<path fill="#88C8DF" opacity="1.000000" stroke="none" 
	d="
M124.567802,156.806244 
	C124.117958,156.363541 123.851532,155.526077 123.718170,155.546768 
	C119.473915,156.204895 115.410599,156.413498 112.383347,152.024902 
	C116.073853,152.349808 120.166939,152.692703 124.588211,153.043869 
	C124.916397,153.052139 124.954460,153.038162 125.060242,153.362381 
	C125.375938,154.759979 125.585861,155.833374 125.795792,156.906754 
	C125.471191,156.844910 125.143684,156.813171 124.567802,156.806244 
z"/>
<path fill="#58ACCD" opacity="1.000000" stroke="none" 
	d="
M123.978836,146.655502 
	C123.400078,147.589478 122.776627,148.195221 122.153168,148.800964 
	C121.790863,147.997894 121.186539,147.217178 121.109924,146.387726 
	C120.838875,143.453323 120.748283,140.502258 120.609200,137.926208 
	C120.999542,138.216125 124.211418,134.176025 123.987854,139.651886 
	C123.950615,140.758850 123.910149,141.509460 123.853973,142.966507 
	C123.894089,144.117569 123.949905,144.562195 124.005722,145.006805 
	C123.981865,145.446960 123.958000,145.887115 123.978836,146.655502 
z"/>
<path fill="#D7F4F9" opacity="1.000000" stroke="none" 
	d="
M78.769455,135.323547 
	C79.343102,135.800827 79.673988,136.579086 79.605804,137.875549 
	C79.148293,141.917480 79.089851,145.441193 79.031410,148.964920 
	C79.031410,148.964920 78.918518,149.085999 78.861450,149.148270 
	C76.395760,146.194672 76.257507,139.430405 78.769455,135.323547 
z"/>
<path fill="#F5F7F9" opacity="1.000000" stroke="none" 
	d="
M66.789413,85.596268 
	C65.604553,85.992920 64.221451,86.162636 62.838345,86.332359 
	C62.842896,86.841522 62.847443,87.350685 62.851994,87.859848 
	C64.275162,87.932266 65.698326,88.004692 67.550186,88.164108 
	C67.562111,88.492523 67.143715,88.943283 66.728851,88.940056 
	C64.648735,88.923843 62.554722,88.881302 60.512711,88.554016 
	C60.306057,88.520889 60.415054,86.518394 60.377571,85.429825 
	C62.448772,85.409668 64.519974,85.389503 66.789413,85.596268 
z"/>
<path fill="#F2B532" opacity="1.000000" stroke="none" 
	d="
M142.002625,76.437050 
	C142.606186,75.670639 143.211151,75.326141 144.090210,74.963333 
	C143.164734,78.966064 141.965164,82.987099 140.481827,87.248718 
	C140.800034,83.945862 141.402039,80.402412 142.002625,76.437050 
z"/>
<path fill="#EEFDFE" opacity="1.000000" stroke="none" 
	d="
M126.199249,156.934723 
	C125.585861,155.833374 125.375938,154.759979 125.079926,153.360016 
	C126.294495,153.581680 127.595154,154.129913 128.895813,154.678146 
	C128.131439,155.439651 127.367073,156.201157 126.199249,156.934723 
z"/>
<path fill="#F5F7F9" opacity="1.000000" stroke="none" 
	d="
M82.495117,91.058319 
	C83.241234,92.411591 83.676910,93.830185 84.016083,95.625885 
	C83.341286,94.376541 82.762978,92.750092 82.495117,91.058319 
z"/>
<path fill="#F5F7F9" opacity="1.000000" stroke="none" 
	d="
M88.171783,91.205132 
	C86.919891,90.625603 85.794052,89.846916 84.323120,88.998978 
	C85.815193,86.297607 86.296013,86.395287 88.155289,90.152115 
	C88.225510,90.540146 88.297836,91.005966 88.171783,91.205132 
z"/>
<path fill="#F5F7F9" opacity="1.000000" stroke="none" 
	d="
M74.878403,101.815033 
	C73.922722,102.364326 72.784500,102.556602 71.320023,102.888618 
	C70.993752,103.028358 71.033691,103.085663 70.805420,102.784454 
	C70.497910,101.759056 70.418663,101.034866 70.339409,100.310669 
	C71.791565,100.693123 73.243713,101.075569 74.878403,101.815033 
z"/>
<path fill="#F5F7F9" opacity="1.000000" stroke="none" 
	d="
M70.968338,103.004410 
	C71.058891,103.391190 71.174866,103.801918 71.405624,104.515602 
	C70.418594,103.858231 69.316788,102.897911 68.214973,101.937592 
	C68.817711,101.361664 69.420448,100.785744 70.464218,100.546860 
	C70.948059,101.617821 70.990875,102.351746 71.033691,103.085663 
	C71.033691,103.085663 70.993752,103.028358 70.968338,103.004410 
z"/>
<path fill="#F5F7F9" opacity="1.000000" stroke="none" 
	d="
M92.034058,74.196297 
	C93.051460,74.624283 94.094452,75.399803 95.035522,76.589470 
	C93.975609,76.183693 93.017632,75.363762 92.034058,74.196297 
z"/>
<path fill="#F19629" opacity="1.000000" stroke="none" 
	d="
M143.945374,68.970436 
	C143.647552,66.882019 143.349731,64.793610 143.100525,62.278122 
	C143.468750,62.654392 143.788330,63.457737 144.044830,65.005737 
	C143.969604,66.823738 143.957489,67.897087 143.945374,68.970436 
z"/>
<path fill="#F5F7F9" opacity="1.000000" stroke="none" 
	d="
M80.534836,77.694984 
	C80.326248,76.494659 80.324883,75.025688 80.670868,73.444611 
	C80.926170,74.697121 80.834114,76.061722 80.534836,77.694984 
z"/>
<path fill="#F5F7F9" opacity="1.000000" stroke="none" 
	d="
M94.404877,88.060272 
	C94.305031,88.952957 93.884918,89.918884 93.241646,90.607498 
	C93.373863,89.597954 93.729240,88.865730 94.404877,88.060272 
z"/>
<path fill="#F5F7F9" opacity="1.000000" stroke="none" 
	d="
M87.971619,100.551666 
	C87.413406,100.426689 86.819336,100.027893 86.306259,99.306030 
	C86.903419,99.414589 87.419594,99.846222 87.971619,100.551666 
z"/>
<path fill="#F2B532" opacity="1.000000" stroke="none" 
	d="
M144.124710,68.990814 
	C143.957489,67.897087 143.969604,66.823738 144.011902,65.348328 
	C144.309570,66.069687 144.577087,67.193115 144.754776,68.668030 
	C144.664932,69.019524 144.304047,69.011185 144.124710,68.990814 
z"/>
<path fill="#202536" opacity="1.000000" stroke="none" 
	d="
M70.805420,102.784454 
	C70.990875,102.351746 70.948059,101.617821 70.854126,100.625275 
	C70.803017,100.366653 70.600616,100.133446 70.470016,100.222061 
	C70.418663,101.034866 70.497910,101.759056 70.805420,102.784454 
z"/>
<path fill="#D7F4F9" opacity="1.000000" stroke="none" 
	d="
M124.229156,144.857269 
	C123.949905,144.562195 123.894089,144.117569 123.898155,143.340836 
	C124.122887,143.575058 124.287735,144.141403 124.229156,144.857269 
z"/>
<path fill="#F5F7F9" opacity="1.000000" stroke="none" 
	d="
M77.488464,101.005219 
	C77.360710,101.308525 76.972214,101.630493 76.295670,101.922661 
	C76.414322,101.603203 76.821014,101.313545 77.488464,101.005219 
z"/>
<path fill="#F5F7F9" opacity="1.000000" stroke="none" 
	d="
M72.354340,98.262283 
	C72.369141,98.008430 72.504837,97.869965 72.640533,97.731491 
	C72.585442,97.946884 72.530342,98.162277 72.354340,98.262283 
z"/>
<path fill="#F5F7F9" opacity="1.000000" stroke="none" 
	d="
M75.042694,92.153168 
	C75.338493,92.361961 75.618172,92.872742 75.867340,93.685593 
	C75.566742,93.476830 75.296661,92.965996 75.042694,92.153168 
z"/>
<path fill="#F5F7F9" opacity="1.000000" stroke="none" 
	d="
M57.709789,67.078712 
	C57.863731,67.007675 57.829937,67.503433 57.749786,67.738586 
	C57.563442,67.788025 57.435577,67.610062 57.364666,67.411728 
	C57.344204,67.354507 57.487587,67.238701 57.709789,67.078712 
z"/>
<path fill="#F2B532" opacity="1.000000" stroke="none" 
	d="
M144.746170,72.730026 
	C144.344757,72.756912 144.279388,72.508278 144.581055,72.123596 
	C144.705627,72.038925 144.839783,72.505867 144.746170,72.730026 
z"/>
<path fill="#F5F7F9" opacity="1.000000" stroke="none" 
	d="
M59.224693,70.657318 
	C59.457947,70.685417 59.676643,71.023994 59.877960,71.675995 
	C59.643768,71.648880 59.426952,71.308334 59.224693,70.657318 
z"/>
<path fill="#F5F7F9" opacity="1.000000" stroke="none" 
	d="
M73.181976,88.663216 
	C73.348541,88.282417 73.605965,88.303413 73.897507,88.802780 
	C73.709610,89.015717 73.490021,88.943672 73.181976,88.663216 
z"/>
<path fill="#F5F7F9" opacity="1.000000" stroke="none" 
	d="
M87.037712,92.807777 
	C87.004776,92.590546 87.229988,92.330734 87.734154,92.050941 
	C87.774025,92.275711 87.534950,92.520454 87.037712,92.807777 
z"/>
<path fill="#F5F7F9" opacity="1.000000" stroke="none" 
	d="
M86.540390,93.807297 
	C86.186935,93.654694 86.191856,93.347809 86.604828,92.917068 
	C86.901894,93.093697 86.863853,93.380302 86.540390,93.807297 
z"/>
<path fill="#F7A420" opacity="1.000000" stroke="none" 
	d="
M110.011841,45.010357 
	C112.702492,46.440060 115.393143,47.869762 118.083794,49.299469 
	C119.909950,49.353615 122.559708,47.584057 123.016739,52.901726 
	C123.096848,53.773659 123.146759,53.970078 123.166260,54.169693 
	C123.135849,54.172897 123.157539,54.115711 122.895638,54.182373 
	C122.466431,54.552532 122.299126,54.856033 122.083221,55.090263 
	C122.034607,55.020996 122.162308,55.132057 121.898712,55.194115 
	C121.470551,55.561306 121.306000,55.866436 121.083023,56.109512 
	C121.024605,56.047459 121.169960,56.136486 120.905090,56.201252 
	C120.482117,56.576653 120.324013,56.887287 120.197388,57.184406 
	C120.228859,57.170891 120.226433,57.239342 119.859238,57.188423 
	C118.642067,58.396095 117.792084,59.654694 116.966103,60.951508 
	C116.990105,60.989727 116.911842,60.944759 116.557449,60.990604 
	C114.357018,61.931210 112.510979,62.825970 110.011841,64.037285 
	C110.011841,57.221260 110.011841,51.115810 110.011841,45.010357 
z"/>
<path fill="#492B0B" opacity="1.000000" stroke="none" 
	d="
M127.872391,53.552559 
	C126.457008,55.017147 125.229576,56.175480 123.816681,57.601349 
	C122.269241,59.245377 120.907280,60.621872 119.117996,62.439587 
	C117.434258,64.539886 116.177849,66.198959 114.582718,67.911301 
	C112.882736,68.693390 111.521461,69.422218 110.123528,69.771408 
	C110.049156,68.883461 110.011452,68.375153 110.134018,67.578369 
	C112.500137,65.174835 114.705986,63.059795 116.911842,60.944756 
	C116.911842,60.944759 116.990105,60.989727 117.260445,60.826500 
	C118.429337,59.521961 119.327888,58.380653 120.226433,57.239342 
	C120.226433,57.239342 120.228859,57.170891 120.464745,57.123188 
	C120.857071,56.762486 121.013512,56.449486 121.169952,56.136482 
	C121.169960,56.136486 121.024605,56.047459 121.355164,56.059822 
	C121.844589,55.758812 122.003448,55.445435 122.162308,55.132057 
	C122.162308,55.132057 122.034607,55.020996 122.355042,55.041023 
	C122.836159,54.745941 122.996849,54.430824 123.157539,54.115711 
	C123.157539,54.115711 123.135849,54.172897 123.407974,54.106167 
	C123.847122,53.762100 124.014160,53.484764 124.181183,53.207428 
	C124.181183,53.207424 124.165100,53.125652 124.423141,53.073654 
	C124.945107,52.716408 125.209030,52.411163 125.472954,52.105919 
	C126.095703,51.172974 126.614510,50.143181 127.369209,49.333176 
	C128.193192,48.448803 129.160172,47.346241 130.211334,47.158310 
	C130.830643,47.047585 132.463760,48.669777 132.348892,49.262001 
	C132.148880,50.293156 131.018738,51.204132 130.144943,52.022976 
	C129.571533,52.560352 128.763367,52.847237 127.872391,53.552559 
z"/>
<path fill="#2A1706" opacity="1.000000" stroke="none" 
	d="
M106.802719,48.990456 
	C106.566658,45.567883 106.197189,42.146492 106.166756,38.722092 
	C106.156082,37.520882 106.978241,36.312271 107.420105,35.107044 
	C108.370163,36.216476 109.320206,37.325905 109.783913,38.960384 
	C109.148941,48.659176 109.000305,57.832924 108.570068,67.004364 
	C107.912956,67.003975 107.537453,67.005890 107.088951,66.544479 
	C106.944878,60.384251 106.873802,54.687351 106.802719,48.990456 
z"/>
<path fill="#E4BF4B" opacity="1.000000" stroke="none" 
	d="
M106.613457,49.005249 
	C106.873802,54.687351 106.944878,60.384251 107.030930,66.799866 
	C107.085419,67.688629 107.124939,67.858681 107.092957,68.451340 
	C107.082306,70.585739 107.143150,72.297531 107.133026,74.472527 
	C107.048042,88.131386 107.066841,101.327271 106.975296,114.522392 
	C106.964760,116.041077 106.339317,117.555496 105.998978,119.071892 
	C106.000259,117.988762 106.001526,116.905632 106.001709,115.416748 
	C106.007179,103.650024 106.013756,92.289070 106.012878,79.996758 
	C106.008469,75.036377 106.011528,71.007347 106.014587,66.978317 
	C106.022438,61.314499 106.030289,55.650681 106.042725,49.526466 
	C106.047302,49.066067 106.424194,49.020042 106.613457,49.005249 
z"/>
<path fill="#DAA03D" opacity="1.000000" stroke="none" 
	d="
M108.851685,67.006668 
	C109.000305,57.832924 109.148941,48.659176 109.660042,39.257843 
	C110.014648,40.738632 110.006775,42.447006 110.005371,44.582870 
	C110.011841,51.115810 110.011841,57.221260 110.011841,64.037285 
	C112.510979,62.825970 114.357018,61.931210 116.557449,60.990601 
	C114.705986,63.059795 112.500137,65.174835 109.867973,67.580589 
	C109.244995,67.583092 109.048340,67.294884 108.851685,67.006668 
z"/>
<path fill="#DAA03D" opacity="1.000000" stroke="none" 
	d="
M125.163544,52.160675 
	C125.209030,52.411163 124.945107,52.716408 124.382965,53.084709 
	C124.341209,52.836983 124.597672,52.526211 125.163544,52.160675 
z"/>
<path fill="#DAA03D" opacity="1.000000" stroke="none" 
	d="
M123.888519,53.129757 
	C124.014160,53.484764 123.847122,53.762100 123.438385,54.102966 
	C123.146759,53.970078 123.096848,53.773659 123.021332,53.273979 
	C123.195763,52.997841 123.395805,53.024963 123.888519,53.129757 
z"/>
<path fill="#F9C21F" opacity="1.000000" stroke="none" 
	d="
M124.074890,88.971466 
	C125.052841,93.053467 126.471558,97.097984 126.823311,101.233246 
	C126.999947,103.309761 125.375099,105.623322 124.305847,107.696014 
	C123.417900,109.417236 122.211441,110.989189 121.028603,112.537537 
	C120.335548,113.444748 119.516296,114.334175 118.571945,114.954948 
	C116.392570,116.387550 114.102303,117.651436 111.196686,118.964470 
	C110.363213,118.958725 110.190071,118.972275 110.008621,118.992905 
	C110.000305,119.000000 110.014740,118.985420 110.030457,118.542435 
	C110.043518,115.735138 110.040855,113.370827 110.410904,110.999008 
	C117.520134,110.494560 116.900948,103.343620 120.603058,99.900444 
	C125.206261,95.619202 120.556648,90.927856 118.140732,86.247871 
	C119.891151,86.559914 120.958900,86.750259 122.018936,86.960083 
	C122.011230,86.979568 122.051338,86.967491 122.141060,87.189873 
	C122.417206,87.692947 122.674484,87.871635 123.008987,87.962845 
	C123.015350,87.977356 123.043015,87.961884 123.131012,88.193985 
	C123.414825,88.719337 123.686844,88.893814 124.036629,88.967194 
	C124.038200,88.984863 124.074890,88.971466 124.074890,88.971466 
z"/>
<path fill="#F8B520" opacity="1.000000" stroke="none" 
	d="
M114.921440,67.858040 
	C116.177849,66.198959 117.434258,64.539886 118.959946,62.734909 
	C123.535988,66.972542 128.419235,70.945305 131.941025,75.888115 
	C134.182205,79.033577 134.403107,83.618500 135.258820,87.783737 
	C132.888931,87.697525 130.790100,87.385544 128.300522,86.658066 
	C125.967926,82.051064 124.026085,77.859573 122.084251,73.668076 
	C121.873505,73.899857 121.662750,74.131645 121.451996,74.363426 
	C119.275146,72.194962 117.098297,70.026497 114.921440,67.858040 
z"/>
<path fill="#EDBB2F" opacity="1.000000" stroke="none" 
	d="
M114.582718,67.911301 
	C117.098297,70.026497 119.275146,72.194962 121.451996,74.363426 
	C121.662750,74.131645 121.873505,73.899857 122.084251,73.668076 
	C124.026085,77.859573 125.967926,82.051064 127.956100,86.620483 
	C128.000214,87.436562 127.997978,87.874733 127.688499,88.511108 
	C122.279716,83.778374 117.178192,78.847427 111.953491,73.621536 
	C111.273598,72.268082 110.716896,71.209564 110.160194,70.151047 
	C111.521461,69.422218 112.882736,68.693390 114.582718,67.911301 
z"/>
<path fill="#1E1802" opacity="1.000000" stroke="none" 
	d="
M105.883804,119.366333 
	C106.339317,117.555496 106.964760,116.041077 106.975296,114.522392 
	C107.066841,101.327271 107.048042,88.131386 107.331726,74.469589 
	C107.601395,74.003456 107.998650,73.991562 108.273376,74.009216 
	C108.731071,74.041290 108.914032,74.055710 109.053680,74.531235 
	C109.005623,87.957481 108.963608,100.922844 109.041344,113.887489 
	C109.051544,115.588684 109.675201,117.286201 110.014740,118.985420 
	C110.014740,118.985420 110.000305,119.000000 110.023819,119.360733 
	C110.014305,120.456383 109.981277,121.191292 109.948257,121.926201 
	C108.406540,121.445045 104.804848,124.764465 105.883804,119.366333 
z"/>
<path fill="#1D1004" opacity="1.000000" stroke="none" 
	d="
M112.076668,73.916481 
	C117.178192,78.847427 122.279716,83.778374 127.685135,88.839691 
	C128.581299,90.314499 129.173569,91.658928 129.765854,93.003365 
	C130.417465,92.846764 131.069077,92.690170 131.720688,92.533577 
	C130.697205,93.359695 129.673737,94.185814 128.585342,95.064331 
	C127.109573,92.837746 125.912079,91.031006 124.394737,89.097870 
	C124.074890,88.971466 124.038200,88.984863 123.970703,88.719879 
	C123.616470,88.290550 123.329742,88.126221 123.043015,87.961884 
	C123.043015,87.961884 123.015350,87.977356 122.943695,87.723465 
	C122.685425,87.160095 122.411858,86.992737 122.051338,86.967491 
	C122.051338,86.967491 122.011230,86.979568 121.891769,86.653839 
	C118.518517,83.213936 115.264732,80.099754 111.901405,76.711189 
	C111.606537,75.884148 111.421211,75.331490 111.446289,74.563446 
	C111.796677,74.204201 111.936668,74.060341 112.076668,73.916481 
z"/>
<path fill="#D2B744" opacity="1.000000" stroke="none" 
	d="
M110.165901,122.085785 
	C109.981277,121.191292 110.014305,120.456383 110.032135,119.353645 
	C110.190071,118.972275 110.363213,118.958725 110.797325,118.954819 
	C110.833374,120.058098 110.608459,121.151733 110.165901,122.085785 
z"/>
<path fill="#58ACCD" opacity="1.000000" stroke="none" 
	d="
M104.053856,139.023987 
	C108.326210,134.973114 110.717628,134.847916 115.895775,138.696655 
	C117.925804,146.421906 115.605637,149.243027 107.344025,148.845673 
	C106.632881,148.477142 106.414444,148.362839 106.148407,148.339569 
	C105.988396,148.219666 105.828392,148.099747 105.257759,147.587372 
	C104.457497,146.478973 104.067856,145.763016 103.661270,144.708008 
	C103.780823,142.587296 103.917336,140.805649 104.053856,139.023987 
M108.877998,138.291153 
	C108.062851,140.362732 106.837502,142.402603 106.673553,144.524506 
	C106.621956,145.192276 109.586617,146.898956 110.863831,146.636505 
	C112.137321,146.374802 113.706596,144.349335 113.939056,142.903137 
	C114.398880,140.042465 112.858109,138.138412 108.877998,138.291153 
z"/>
<path fill="#52ACD1" opacity="1.000000" stroke="none" 
	d="
M90.737816,137.035110 
	C91.902603,137.261093 93.381844,137.119797 94.165611,137.790833 
	C95.716560,139.118668 96.883133,140.895477 98.215752,142.495255 
	C99.011368,140.125397 99.679268,138.135956 100.347168,136.146530 
	C100.843277,136.850342 101.339394,137.554153 101.828590,139.058746 
	C101.876175,141.572205 101.930672,143.284866 101.928589,145.358963 
	C101.644981,146.759354 101.417953,147.798309 100.994423,149.736496 
	C98.903511,147.404083 97.396843,145.723389 95.793976,143.746796 
	C95.305702,142.576233 94.913628,141.701584 94.521561,140.826950 
	C94.098122,141.152206 93.674683,141.477478 93.251244,141.802750 
	C93.305862,142.849533 93.360489,143.896332 93.343864,145.324707 
	C92.876312,146.862350 92.479996,148.018402 92.083694,149.174438 
	C91.917603,149.121780 91.751511,149.069107 91.327950,148.972244 
	C91.070488,148.928055 91.033333,148.967072 91.010849,148.537354 
	C90.900787,146.091492 90.813210,144.075348 90.725624,142.059204 
	C90.767792,141.281281 90.809967,140.503342 90.846382,139.023315 
	C90.806358,137.892502 90.772087,137.463806 90.737816,137.035110 
z"/>
<path fill="#E9FCFF" opacity="1.000000" stroke="none" 
	d="
M95.890175,144.042709 
	C97.396843,145.723389 98.903511,147.404083 100.994423,149.736496 
	C101.417953,147.798309 101.644981,146.759354 102.211266,145.363983 
	C102.926422,145.020721 103.302315,145.033905 103.678223,145.047073 
	C104.067856,145.763016 104.457497,146.478973 104.982613,147.467957 
	C104.953270,149.417679 104.788460,151.094360 104.654564,152.456497 
	C100.222260,151.433502 96.408356,150.553238 92.339066,149.423706 
	C92.479996,148.018402 92.876312,146.862350 93.572525,145.184174 
	C94.545006,144.455597 95.217590,144.249146 95.890175,144.042709 
z"/>
<path fill="#3CA6D0" opacity="1.000000" stroke="none" 
	d="
M79.392105,148.934540 
	C79.089851,145.441193 79.148293,141.917480 79.596390,138.214935 
	C79.980782,138.390503 80.123573,138.668961 80.638412,138.965027 
	C82.032997,140.873154 83.203590,142.687729 84.976082,145.435333 
	C83.044044,145.042145 82.168800,144.864029 81.586411,144.745499 
	C80.957207,146.172546 80.355003,147.538345 79.392105,148.934540 
z"/>
<path fill="#58ACCD" opacity="1.000000" stroke="none" 
	d="
M84.972290,154.586365 
	C84.975273,154.907883 84.498886,154.954880 84.260269,154.936798 
	C84.072639,154.130157 84.123611,153.341614 84.174583,152.553070 
	C84.334854,152.545715 84.495117,152.538376 84.655388,152.531021 
	C84.760025,153.108978 84.864662,153.686920 84.972290,154.586365 
z"/>
<path fill="#E9FCFF" opacity="1.000000" stroke="none" 
	d="
M106.263367,148.485474 
	C106.414444,148.362839 106.632881,148.477142 106.918427,148.835205 
	C106.788895,148.916702 106.570633,148.797852 106.263367,148.485474 
z"/>
<path fill="#E9FCFF" opacity="1.000000" stroke="none" 
	d="
M87.999695,149.000275 
	C87.877487,148.861542 87.755577,148.722534 87.633667,148.583527 
	C87.718399,148.631699 87.803131,148.679871 87.944138,148.863724 
	C88.000420,148.999390 88.000000,149.000000 87.999695,149.000275 
z"/>
<path fill="#D7F4F9" opacity="1.000000" stroke="none" 
	d="
M103.661263,144.708008 
	C103.302315,145.033905 102.926422,145.020721 102.267845,145.002533 
	C101.930672,143.284866 101.876175,141.572205 101.883041,139.435242 
	C102.413208,139.012024 102.882011,139.013123 103.702332,139.019104 
	C103.917336,140.805649 103.780823,142.587296 103.661263,144.708008 
z"/>
<path fill="#D7F4F9" opacity="1.000000" stroke="none" 
	d="
M90.504974,142.352509 
	C90.813210,144.075348 90.900787,146.091492 91.036362,148.539856 
	C90.817673,146.863312 90.550995,144.754562 90.504974,142.352509 
z"/>
<path fill="#D7F4F9" opacity="1.000000" stroke="none" 
	d="
M90.561562,137.189896 
	C90.772087,137.463806 90.806358,137.892502 90.777679,138.639221 
	C90.604919,138.419708 90.495117,137.882202 90.561562,137.189896 
z"/>
<path fill="#D7F4F9" opacity="1.000000" stroke="none" 
	d="
M93.188156,133.490540 
	C93.467270,133.241760 93.900642,133.173309 94.651871,133.204330 
	C94.427292,133.426147 93.884850,133.548508 93.188156,133.490540 
z"/>
<path fill="#D7F4F9" opacity="1.000000" stroke="none" 
	d="
M110.129089,133.442535 
	C110.045692,133.307236 110.504723,133.140533 110.733383,133.225433 
	C110.962044,133.310349 110.647438,133.641983 110.647438,133.641983 
	C110.647438,133.641983 110.212494,133.577820 110.129089,133.442535 
z"/>
<path fill="#D7F4F9" opacity="1.000000" stroke="none" 
	d="
M80.094727,133.351685 
	C80.014442,133.204147 80.506889,133.122467 80.739975,133.211349 
	C80.707047,133.366562 80.441025,133.432892 80.094727,133.351685 
z"/>
<path fill="#D7F4F9" opacity="1.000000" stroke="none" 
	d="
M99.120819,133.443787 
	C99.188278,133.249512 99.345123,133.190216 99.739197,133.214142 
	C99.976433,133.297379 99.654991,133.635864 99.654991,133.635864 
	C99.654991,133.635864 99.210190,133.578751 99.120819,133.443787 
z"/>
<path fill="#F8CC24" opacity="1.000000" stroke="none" 
	d="
M105.653404,67.043732 
	C106.011528,71.007347 106.008469,75.036377 106.006416,79.527481 
	C101.975716,78.124512 104.865952,74.543175 104.003448,71.450417 
	C104.435394,69.708138 104.863808,68.408646 105.653404,67.043732 
z"/>
<path fill="#DAA03D" opacity="1.000000" stroke="none" 
	d="
M119.859238,57.188423 
	C119.327888,58.380653 118.429337,59.521961 117.236443,60.788277 
	C117.792084,59.654694 118.642067,58.396095 119.859238,57.188423 
z"/>
<path fill="#DAA03D" opacity="1.000000" stroke="none" 
	d="
M122.895638,54.182373 
	C122.996849,54.430824 122.836159,54.745941 122.403648,55.110291 
	C122.299126,54.856033 122.466431,54.552532 122.895638,54.182373 
z"/>
<path fill="#DAA03D" opacity="1.000000" stroke="none" 
	d="
M121.898712,55.194115 
	C122.003448,55.445435 121.844589,55.758812 121.413589,56.121880 
	C121.306000,55.866436 121.470551,55.561306 121.898712,55.194115 
z"/>
<path fill="#DAA03D" opacity="1.000000" stroke="none" 
	d="
M120.905083,56.201248 
	C121.013512,56.449486 120.857071,56.762486 120.433273,57.136703 
	C120.324013,56.887287 120.482117,56.576653 120.905083,56.201248 
z"/>
<path fill="#1D1004" opacity="1.000000" stroke="none" 
	d="
M109.096985,74.070129 
	C108.914032,74.055710 108.731071,74.041290 108.272163,73.613159 
	C107.718971,71.475876 107.441719,69.752312 107.164459,68.028740 
	C107.124939,67.858681 107.085419,67.688629 107.103928,67.263199 
	C107.537453,67.005890 107.912956,67.003975 108.570068,67.004364 
	C109.048340,67.294884 109.244995,67.583092 109.707703,67.869080 
	C110.011452,68.375153 110.049156,68.883461 110.123528,69.771408 
	C110.716896,71.209564 111.273598,72.268082 111.953491,73.621536 
	C111.936668,74.060341 111.796677,74.204201 111.203644,74.405518 
	C110.199394,74.332039 109.648186,74.201080 109.096985,74.070129 
z"/>
<path fill="#2A1706" opacity="1.000000" stroke="none" 
	d="
M107.092957,68.451340 
	C107.441719,69.752312 107.718971,71.475876 107.997437,73.595505 
	C107.998650,73.991562 107.601395,74.003456 107.402695,74.006393 
	C107.143150,72.297531 107.082306,70.585739 107.092957,68.451340 
z"/>
<path fill="#F8CC24" opacity="1.000000" stroke="none" 
	d="
M112.010948,76.985573 
	C115.264732,80.099754 118.518517,83.213936 121.899475,86.634361 
	C120.958900,86.750259 119.891151,86.559914 118.140732,86.247871 
	C120.556648,90.927856 125.206261,95.619202 120.603058,99.900444 
	C116.900948,103.343620 117.520134,110.494560 110.394150,110.560852 
	C110.012085,108.086159 110.019493,106.042099 110.376640,103.958740 
	C116.055740,99.479263 117.792358,93.903610 115.449120,89.951454 
	C114.420097,88.215881 114.175835,86.015022 113.575249,84.025421 
	C113.939850,83.751114 114.304459,83.476807 114.669067,83.202499 
	C113.128304,82.803383 111.587540,82.404266 110.031502,81.622620 
	C110.983482,79.963676 107.885460,76.781265 112.010948,76.985573 
z"/>
<path fill="#D2B744" opacity="1.000000" stroke="none" 
	d="
M111.901405,76.711189 
	C107.885460,76.781265 110.983482,79.963676 110.013382,82.090393 
	C110.015991,89.959816 110.021446,96.978928 110.026894,103.998047 
	C110.019493,106.042099 110.012085,108.086159 110.021439,110.568359 
	C110.040855,113.370827 110.043518,115.735138 110.030457,118.542435 
	C109.675201,117.286201 109.051544,115.588684 109.041344,113.887489 
	C108.963608,100.922844 109.005623,87.957481 109.053680,74.531235 
	C109.648186,74.201080 110.199394,74.332039 110.993240,74.620911 
	C111.421211,75.331490 111.606537,75.884148 111.901405,76.711189 
z"/>
<path fill="#F8CC24" opacity="1.000000" stroke="none" 
	d="
M122.141060,87.189873 
	C122.411858,86.992737 122.685425,87.160095 122.937332,87.708946 
	C122.674484,87.871635 122.417206,87.692947 122.141060,87.189873 
z"/>
<path fill="#F2B532" opacity="1.000000" stroke="none" 
	d="
M123.131012,88.193985 
	C123.329742,88.126221 123.616470,88.290550 123.969131,88.702209 
	C123.686844,88.893814 123.414825,88.719337 123.131012,88.193985 
z"/>
<path fill="#E9FCFF" opacity="1.000000" stroke="none" 
	d="
M109.261589,138.231430 
	C112.858109,138.138412 114.398880,140.042465 113.939056,142.903137 
	C113.706596,144.349335 112.137321,146.374802 110.863831,146.636505 
	C109.586617,146.898956 106.621956,145.192276 106.673553,144.524506 
	C106.837502,142.402603 108.062851,140.362732 109.261589,138.231430 
z"/>
<path fill="#D7F4F9" opacity="1.000000" stroke="none" 
	d="
M95.793976,143.746796 
	C95.217590,144.249146 94.545006,144.455597 93.643768,144.802582 
	C93.360489,143.896332 93.305862,142.849533 93.251244,141.802750 
	C93.674683,141.477478 94.098122,141.152206 94.521561,140.826950 
	C94.913628,141.701584 95.305702,142.576233 95.793976,143.746796 
z"/>
<path fill="#FAD422" opacity="1.000000" stroke="none" 
	d="
M110.376640,103.958740 
	C110.021446,96.978928 110.015991,89.959816 110.028656,82.472923 
	C111.587540,82.404266 113.128304,82.803383 114.669067,83.202499 
	C114.304459,83.476807 113.939850,83.751114 113.575249,84.025421 
	C114.175835,86.015022 114.420097,88.215881 115.449120,89.951454 
	C117.792358,93.903610 116.055740,99.479263 110.376640,103.958740 
z"/>
</svg>