<?xml version="1.0" standalone="no"?>
<!DOCTYPE svg PUBLIC "-//W3C//DTD SVG 20010904//EN"
 "http://www.w3.org/TR/2001/REC-SVG-20010904/DTD/svg10.dtd">
<svg version="1.0" xmlns="http://www.w3.org/2000/svg"
 width="1728.000000pt" height="1728.000000pt" viewBox="0 0 1728.000000 1728.000000"
 preserveAspectRatio="xMidYMid meet">

<g transform="translate(0.000000,1728.000000) scale(0.100000,-0.100000)"
fill="#000000" stroke="none">
<path d="M10012 10603 l3 -247 85 -33 c47 -19 184 -72 305 -119 121 -47 281
-110 355 -139 74 -29 152 -59 173 -66 20 -7 37 -15 37 -19 0 -3 -67 -29 -148
-59 -81 -29 -174 -64 -207 -77 -33 -12 -175 -65 -315 -118 -140 -52 -263 -98
-272 -101 -17 -7 -18 -28 -18 -262 l0 -254 23 7 c12 3 83 31 157 61 74 30 200
81 280 113 80 32 219 89 310 125 91 37 235 96 320 130 439 177 531 215 550
225 20 11 20 19 18 217 l-3 205 -280 113 c-285 115 -730 294 -1131 456 -122
49 -227 89 -233 89 -8 0 -11 -68 -9 -247z"/>
<path d="M10975 8938 c-66 -28 -183 -76 -260 -107 l-140 -56 -3 -182 -2 -182
-113 -3 -112 -3 0 -200 0 -200 112 -3 112 -3 4 -562 c3 -500 5 -569 21 -622
55 -187 183 -305 379 -349 135 -31 323 -29 475 4 l52 12 0 213 0 213 -51 -15
c-33 -10 -81 -14 -139 -11 -103 4 -132 19 -167 88 -23 44 -23 46 -23 537 l0
493 185 0 185 0 0 205 0 205 -185 0 -185 0 0 290 c0 226 -3 290 -12 289 -7 -1
-67 -24 -133 -51z"/>
<path d="M943 8440 c-284 -40 -496 -174 -593 -374 -22 -46 -47 -114 -55 -152
-25 -116 -52 -104 243 -104 l257 0 18 61 c23 80 89 148 162 170 79 22 200 18
258 -10 93 -45 132 -120 143 -278 l7 -93 -144 0 c-449 -1 -695 -66 -860 -230
-108 -106 -148 -206 -156 -380 -8 -176 22 -289 105 -399 108 -143 297 -221
534 -221 184 1 344 64 460 183 l68 69 0 -106 0 -106 265 0 266 0 -3 723 -3
722 -26 82 c-70 224 -234 366 -488 424 -99 23 -358 33 -458 19z m431 -1270
c-1 -137 -14 -183 -68 -248 -108 -127 -379 -151 -487 -43 -41 41 -59 91 -59
169 0 122 73 203 210 231 30 6 64 13 75 15 11 2 90 3 175 2 l155 -1 -1 -125z"/>
<path d="M2967 8435 c-295 -56 -511 -216 -636 -470 -82 -167 -111 -306 -111
-535 0 -229 34 -392 116 -550 160 -310 460 -466 864 -447 141 7 227 23 326 63
75 29 178 93 236 146 127 116 214 296 243 501 l6 47 -247 -2 -247 -3 -17 -60
c-36 -131 -114 -226 -217 -265 -83 -31 -206 -25 -286 14 -71 34 -139 110 -167
183 -47 126 -54 178 -54 383 0 183 2 200 28 285 43 141 101 218 206 272 48 24
67 27 146 28 81 0 96 -3 149 -30 85 -43 134 -118 171 -262 3 -10 64 -13 264
-13 l261 0 -7 38 c-33 193 -94 334 -188 439 -100 110 -251 193 -417 229 -105
23 -325 27 -422 9z"/>
<path d="M4983 8436 c-303 -58 -534 -235 -654 -502 -103 -230 -125 -572 -54
-849 83 -328 300 -547 622 -627 118 -30 399 -32 508 -5 220 55 378 160 485
324 74 112 130 276 130 379 l0 34 -244 0 -244 0 -12 -52 c-28 -120 -98 -215
-195 -267 -45 -23 -61 -26 -155 -26 -101 0 -108 1 -168 34 -93 50 -150 133
-188 271 -15 53 -18 105 -19 275 0 234 7 276 62 393 41 88 95 145 172 181 48
22 69 26 146 26 77 -1 97 -5 141 -27 83 -44 150 -139 169 -242 l7 -36 259 0
259 0 0 25 c0 48 -31 173 -59 243 -94 228 -283 380 -541 437 -103 22 -335 28
-427 11z"/>
<path d="M6993 8436 c-385 -74 -631 -322 -719 -726 -28 -128 -26 -459 4 -587
84 -365 301 -586 657 -669 114 -27 396 -27 510 0 171 40 312 115 415 220 63
65 80 89 131 189 32 63 68 173 69 210 0 4 -113 6 -251 5 l-251 -3 -19 -49
c-22 -60 -96 -138 -155 -166 -65 -30 -172 -44 -250 -31 -193 30 -295 159 -329
419 l-7 52 632 0 633 0 -6 213 c-6 232 -18 309 -69 436 -97 247 -291 411 -555
472 -115 26 -340 34 -440 15z m309 -386 c77 -24 134 -69 171 -139 28 -51 57
-160 57 -218 l0 -33 -360 0 c-294 0 -360 2 -360 13 0 30 40 168 60 207 29 56
96 127 142 151 83 42 192 50 290 19z"/>
<path d="M9405 8443 c-173 -24 -351 -131 -432 -259 -15 -24 -30 -44 -33 -44
-3 0 -5 60 -5 132 l0 133 -272 3 -273 2 0 -970 0 -970 275 0 275 0 0 640 c0
629 0 640 21 697 28 72 94 144 162 174 43 19 70 23 152 24 123 0 177 -21 224
-86 61 -84 61 -78 61 -796 l0 -653 275 0 275 0 -1 678 c0 372 -5 711 -10 752
-39 307 -183 485 -431 535 -72 14 -192 18 -263 8z"/>
<path d="M15958 8436 c-415 -74 -686 -379 -738 -831 -47 -414 65 -779 298
-971 176 -145 416 -214 696 -201 198 9 337 48 472 133 92 57 209 181 256 271
33 61 78 196 78 230 0 10 -54 13 -248 13 l-248 0 -23 -55 c-28 -67 -90 -133
-153 -164 -59 -28 -165 -44 -238 -35 -203 24 -311 159 -344 427 l-6 47 630 0
630 0 0 179 c0 254 -28 401 -107 552 -100 193 -289 335 -518 390 -115 27 -327
34 -437 15z m304 -386 c80 -24 135 -71 175 -147 31 -57 53 -145 53 -210 l0
-33 -360 0 c-217 0 -360 4 -360 9 0 6 7 40 16 77 39 172 132 283 261 313 65
15 148 12 215 -9z"/>
<path d="M14870 8419 c-25 -5 -82 -27 -128 -50 -102 -50 -174 -119 -237 -226
l-45 -78 0 173 0 172 -270 0 -270 0 0 -970 0 -970 270 0 269 0 3 558 c3 555 3
557 26 614 62 153 212 237 453 254 l99 7 0 263 0 264 -62 -1 c-35 -1 -83 -5
-108 -10z"/>
<path d="M11817 8403 c-11 -10 -8 -1256 3 -1378 18 -202 69 -331 171 -435 103
-104 253 -160 434 -160 188 0 333 56 447 171 37 37 75 83 85 101 l18 33 3
-132 3 -133 274 0 275 0 -2 968 -3 967 -272 3 -273 2 -2 -658 -3 -657 -33 -68
c-38 -77 -93 -125 -175 -154 -62 -21 -185 -23 -241 -4 -58 20 -112 74 -138
139 l-23 57 -3 673 -3 672 -268 0 c-147 0 -271 -3 -274 -7z"/>
</g>
</svg>
