<svg version="1.1" id="Layer_1" xmlns="http://www.w3.org/2000/svg" xmlns:xlink="http://www.w3.org/1999/xlink" x="0px" y="0px"
	 width="100%" viewBox="0 0 225 225" enable-background="new 0 0 225 225" xml:space="preserve">
<path fill="#FEFEFE" opacity="1.000000" stroke="none" 
	d="
M115.000000,226.000000 
	C76.666672,226.000000 38.833340,226.000000 1.000005,226.000000 
	C1.000003,151.000000 1.000003,76.000015 1.000002,1.000015 
	C75.999992,1.000010 150.999985,1.000010 225.999969,1.000005 
	C225.999985,75.999985 225.999985,150.999969 226.000000,225.999969 
	C189.166672,226.000000 152.333328,226.000000 115.000000,226.000000 
M112.409126,105.790771 
	C111.932487,105.821999 111.455856,105.853218 110.063698,105.673843 
	C90.329407,105.667778 70.595070,105.636375 50.860855,105.674431 
	C46.234974,105.683350 41.609543,105.927330 36.502056,106.026337 
	C36.502056,106.026337 36.064846,106.232216 35.407749,106.326263 
	C34.323059,107.896690 33.238365,109.467110 32.037506,111.499435 
	C32.037506,111.499435 32.121693,111.968216 31.954756,112.896530 
	C32.007263,120.606674 32.059769,128.316818 32.019680,136.497879 
	C32.019680,136.497879 32.138332,136.962921 31.994686,137.709625 
	C32.685070,141.998398 35.190041,143.965530 39.542881,143.951538 
	C63.686237,143.873932 87.829796,143.859421 112.738899,143.899139 
	C115.309685,143.937271 117.880470,144.007858 120.451263,144.008438 
	C142.874939,144.013458 165.298721,144.033188 187.722153,143.957169 
	C189.808105,143.950089 191.891907,143.312439 194.607010,142.757401 
	C195.379883,141.487244 196.152756,140.217102 197.013260,138.019913 
	C196.994354,128.714951 196.975449,119.410004 196.922150,109.395058 
	C195.583252,108.275795 194.244370,107.156540 191.988464,105.898193 
	C174.355270,105.840439 156.722046,105.732849 139.088913,105.747437 
	C131.112350,105.754036 123.135979,106.003487 114.480698,106.023064 
	C114.024727,105.996849 113.568748,105.970634 112.409126,105.790771 
M102.481064,154.607376 
	C102.557091,153.585815 102.633118,152.564240 102.709145,151.542679 
	C102.301514,151.499496 101.893890,151.456314 101.486259,151.413132 
	C101.318184,152.835052 100.596397,155.233994 101.079132,155.507584 
	C103.033913,156.615433 105.359276,157.069412 107.928993,157.885742 
	C107.443466,153.825012 107.443466,153.825012 103.629372,154.702911 
	C103.440559,154.786987 103.251747,154.871048 102.481064,154.607376 
M123.591080,85.053284 
	C127.053009,82.209404 132.378311,80.829323 131.900284,74.542175 
	C120.030792,78.036613 111.168716,89.419991 97.150581,86.137077 
	C99.404625,90.949356 101.303749,92.547028 106.310211,91.399765 
	C112.022545,90.090736 117.441490,87.501404 123.591080,85.053284 
M112.822273,74.427979 
	C107.842850,76.400604 102.863434,78.373238 96.823509,80.765991 
	C96.070625,82.616768 97.825897,83.946159 100.573792,83.192261 
	C106.575729,81.545593 112.360619,79.103226 118.368515,77.484512 
	C122.187408,76.455574 123.572609,74.123253 124.089546,71.018822 
	C119.251839,68.142937 116.714272,72.185143 112.822273,74.427979 
M33.515469,150.715836 
	C33.058365,151.278732 32.601261,151.841629 32.303673,152.208084 
	C36.408543,155.622635 44.055058,148.785080 46.090149,157.823959 
	C49.286568,158.444351 53.106293,157.771805 53.446423,154.289032 
	C53.802959,150.638229 49.860615,150.310760 46.747139,150.348114 
	C42.602535,150.397873 38.457546,150.415924 33.515469,150.715836 
M114.807983,97.264259 
	C118.575249,96.622185 122.467087,96.158142 123.656586,90.270119 
	C116.742241,92.075798 110.418236,93.727318 104.094223,95.378830 
	C104.124657,96.076729 104.155098,96.774628 104.185532,97.472527 
	C107.446808,97.472527 110.708076,97.472527 114.807983,97.264259 
M61.632206,156.414719 
	C62.334969,156.673615 63.037731,156.932495 63.740494,157.191391 
	C63.975189,155.548370 64.374763,153.900284 64.324539,152.266006 
	C64.312523,151.874832 62.733562,151.122696 61.996330,151.248138 
	C60.464191,151.508804 59.013111,152.245895 58.093334,152.581284 
	C58.898338,152.679459 60.337841,152.854996 61.777348,153.030548 
	C56.504593,154.088745 56.504593,154.088745 56.706963,157.040771 
	C58.138474,156.723770 59.573063,156.406097 61.632206,156.414719 
z"/>
<path fill="#1C9FDA" opacity="1.000000" stroke="none" 
	d="
M32.112274,136.026962 
	C32.059769,128.316818 32.007263,120.606674 32.189793,112.352516 
	C32.483013,111.711288 32.613811,111.565529 32.586868,111.525223 
	C32.467152,111.346161 32.302242,111.197311 32.153671,111.037537 
	C33.238365,109.467110 34.323059,107.896690 35.842472,106.409096 
	C36.512764,106.349007 36.748333,106.206085 36.983906,106.063171 
	C41.609543,105.927330 46.234974,105.683350 50.860855,105.674431 
	C70.595070,105.636375 90.329407,105.667778 110.526291,106.179016 
	C111.016548,107.217865 111.044197,107.751526 111.097076,108.482361 
	C111.122292,108.679527 111.187416,109.071701 111.086281,109.526459 
	C111.030510,119.661827 111.075874,129.342438 111.090820,139.297058 
	C111.084885,139.937576 111.109367,140.304092 111.179146,140.997604 
	C111.474060,142.157501 111.723671,142.990402 111.973289,143.823303 
	C87.829796,143.859421 63.686237,143.873932 39.542881,143.951538 
	C35.190041,143.965530 32.685070,141.998398 32.215096,137.248260 
	C32.327766,136.533585 32.220020,136.280273 32.112274,136.026962 
M58.600948,129.011169 
	C59.053505,129.004913 59.506065,128.998657 60.126686,129.738571 
	C60.070656,130.496902 60.014626,131.255234 59.633102,132.186691 
	C59.741505,132.453293 59.849907,132.719879 60.125927,133.722443 
	C60.439236,134.747559 60.752548,135.772690 61.065857,136.797806 
	C61.640549,136.731323 62.215244,136.664841 62.789940,136.598358 
	C62.789940,131.200623 62.789940,125.802902 62.789940,118.995651 
	C68.819031,125.748650 73.726524,131.245377 79.254158,137.436707 
	C79.464729,134.099716 79.614578,131.725128 79.769775,129.265625 
	C83.367424,131.896423 86.437820,135.093079 90.188553,136.637497 
	C94.623627,138.463684 98.993088,136.779419 102.298195,133.051483 
	C106.002487,128.873291 106.487808,121.657906 102.716866,117.423279 
	C94.263634,107.930626 87.095306,112.992676 80.367035,120.714188 
	C79.640823,117.610039 79.108940,115.336533 78.577065,113.063034 
	C78.039780,113.140831 77.502495,113.218628 76.965210,113.296425 
	C76.965210,118.727577 76.965210,124.158730 76.965210,130.876587 
	C74.261665,127.807442 72.595886,125.776566 70.782410,123.887466 
	C67.268585,120.227135 63.671638,116.646584 59.274609,113.015450 
	C58.718533,113.044212 58.162453,113.072975 56.788116,113.121620 
	C56.176579,114.018265 55.092419,114.886688 55.036919,115.816521 
	C54.819363,119.461243 55.418129,123.218269 54.750381,126.751541 
	C54.255287,129.371231 52.877998,132.773544 50.821190,133.946365 
	C46.834446,136.219635 43.151802,133.237640 42.999100,128.190994 
	C42.847923,123.194878 42.966045,118.190620 42.966045,113.189926 
	C42.326424,113.107452 41.686806,113.024971 41.047184,112.942490 
	C40.696758,114.070656 40.078865,115.190681 40.044262,116.328453 
	C39.923031,120.314095 39.884666,124.310265 40.033314,128.294281 
	C40.271454,134.676880 43.703175,137.522934 50.026058,137.178314 
	C55.327263,136.889389 56.819920,133.210556 58.600948,129.011169 
z"/>
<path fill="#F4FAFC" opacity="1.000000" stroke="none" 
	d="
M111.133850,140.670609 
	C111.109367,140.304092 111.084885,139.937576 111.263428,139.300293 
	C111.466461,139.029541 111.811836,139.025909 112.051231,139.338867 
	C112.558861,138.149200 113.004524,136.653854 113.066208,135.142807 
	C113.435501,126.096855 113.716400,117.047287 114.281174,107.903923 
	C114.699287,107.498260 114.863167,107.187614 115.493217,106.909103 
	C141.414246,107.141045 166.869095,107.344154 192.324326,107.478363 
	C192.515503,107.479370 192.711655,106.538422 192.905487,106.037285 
	C194.244370,107.156540 195.583252,108.275795 196.709869,109.705025 
	C196.497589,110.014992 196.030594,110.040627 195.793274,110.031189 
	C195.442078,110.131317 195.222305,110.254066 195.234009,110.347992 
	C195.270554,110.641373 195.394547,110.923874 195.537323,111.660995 
	C195.465561,121.034203 195.341156,129.957016 195.019012,139.123856 
	C194.157242,140.166901 193.493210,140.965912 192.376190,141.836700 
	C166.707443,141.916656 141.491608,141.949448 116.276070,141.878723 
	C114.560883,141.873901 112.847870,141.091415 111.133850,140.670609 
M126.910271,120.341713 
	C126.622696,119.522896 126.335121,118.704086 126.067215,117.054527 
	C124.121696,116.551399 122.176186,116.048271 119.777153,115.427864 
	C119.520767,118.558205 119.338890,120.778893 118.998970,123.863335 
	C119.004128,125.908913 119.009285,127.954498 118.801590,130.824005 
	C119.130867,132.091080 119.286064,133.455658 119.904892,134.560562 
	C120.071381,134.857834 122.427521,134.443756 122.449615,134.223129 
	C122.591141,132.810135 122.362213,131.360046 122.334816,129.367218 
	C122.808998,127.941589 123.283180,126.515953 123.859589,125.725899 
	C123.916512,126.150505 123.973434,126.575104 123.905243,127.787643 
	C124.333145,129.180771 124.610413,130.646652 125.236938,131.943832 
	C125.731720,132.968246 126.655975,133.785248 127.389488,134.694366 
	C128.250153,133.714615 129.546158,132.863831 129.882416,131.728729 
	C130.622894,129.229080 130.878952,126.585930 131.332703,124.001335 
	C131.596954,124.019157 131.861206,124.036972 132.125458,124.054787 
	C132.125458,127.449921 132.125458,130.845062 132.125458,134.618774 
	C134.014664,134.520737 135.397049,134.449005 136.860001,134.373077 
	C136.457825,127.804817 136.083176,121.686157 135.709412,115.582169 
	C133.591476,115.484467 131.564896,115.390984 129.822235,115.310593 
	C128.871353,117.569000 127.956795,119.741158 126.977013,121.448990 
	C126.977013,121.448990 126.830704,121.003540 126.910271,120.341713 
M152.027786,115.413124 
	C151.689651,115.285278 151.351517,115.157433 150.271484,114.823631 
	C149.511246,114.890831 148.751022,114.958023 147.472260,115.047241 
	C147.353745,115.350967 147.235229,115.654694 146.927673,116.869179 
	C146.980530,120.585411 147.033371,124.301651 146.982986,128.824814 
	C147.216858,130.627380 147.450729,132.429962 148.363174,134.565842 
	C150.394180,134.888443 152.060104,134.864365 151.796173,131.982224 
	C151.619949,130.057831 151.762695,128.104233 151.762695,126.163696 
	C154.672607,135.089493 154.672607,135.089493 159.770599,133.985153 
	C159.770599,127.753349 159.770599,121.495102 159.770599,114.843506 
	C158.122864,114.954308 156.748291,115.046738 155.346466,115.141006 
	C155.184250,117.683258 155.049088,119.801529 154.857391,122.805702 
	C153.731430,119.882011 152.974365,117.916229 152.027786,115.413124 
M171.750092,116.027382 
	C168.963806,115.544693 166.177521,115.061996 163.168396,114.540703 
	C163.168396,121.640251 163.168396,127.975853 163.168396,134.258636 
	C170.258179,135.007065 172.746750,134.187149 174.402405,130.733398 
	C176.676468,125.989632 175.758881,120.307480 171.750092,116.027382 
M177.683212,127.181892 
	C177.392517,129.261917 177.101807,131.341934 176.570068,135.146591 
	C181.592697,130.987885 185.596283,133.944489 190.439224,134.877289 
	C189.214783,129.147415 187.814499,124.358421 187.255295,119.473160 
	C186.714676,114.750267 184.406235,114.061951 180.214447,115.292122 
	C179.456818,118.919594 178.680603,122.636024 177.683212,127.181892 
M139.560547,134.300522 
	C142.906265,135.597336 144.138397,133.959961 144.161087,130.878387 
	C144.194199,126.382225 144.142654,121.885117 144.078506,117.389099 
	C144.072144,116.942329 143.728470,116.500366 143.422211,115.773361 
	C142.040436,115.932228 140.656021,116.091393 139.130249,116.266815 
	C139.130249,122.319504 139.130249,127.965385 139.560547,134.300522 
z"/>
<path fill="#EA3A3D" opacity="1.000000" stroke="none" 
	d="
M123.289505,85.260872 
	C117.441490,87.501404 112.022545,90.090736 106.310211,91.399765 
	C101.303749,92.547028 99.404625,90.949356 97.150581,86.137077 
	C111.168716,89.419991 120.030792,78.036613 131.900284,74.542175 
	C132.378311,80.829323 127.053009,82.209404 123.289505,85.260872 
z"/>
<path fill="#37A8DB" opacity="1.000000" stroke="none" 
	d="
M111.179146,140.997604 
	C112.847870,141.091415 114.560883,141.873901 116.276070,141.878723 
	C141.491608,141.949448 166.707443,141.916656 192.636627,141.967010 
	C193.558945,142.339554 193.767822,142.653564 193.976715,142.967575 
	C191.891907,143.312439 189.808105,143.950089 187.722153,143.957169 
	C165.298721,144.033188 142.874939,144.013458 120.451263,144.008438 
	C117.880470,144.007858 115.309685,143.937271 112.356094,143.861221 
	C111.723671,142.990402 111.474060,142.157501 111.179146,140.997604 
z"/>
<path fill="#EB3D40" opacity="1.000000" stroke="none" 
	d="
M113.140457,74.225060 
	C116.714272,72.185143 119.251839,68.142937 124.089546,71.018822 
	C123.572609,74.123253 122.187408,76.455574 118.368515,77.484512 
	C112.360619,79.103226 106.575729,81.545593 100.573792,83.192261 
	C97.825897,83.946159 96.070625,82.616768 96.823509,80.765991 
	C102.863434,78.373238 107.842850,76.400604 113.140457,74.225060 
z"/>
<path fill="#B1B1B1" opacity="1.000000" stroke="none" 
	d="
M33.914097,150.581711 
	C38.457546,150.415924 42.602535,150.397873 46.747139,150.348114 
	C49.860615,150.310760 53.802959,150.638229 53.446423,154.289032 
	C53.106293,157.771805 49.286568,158.444351 46.090149,157.823959 
	C44.055058,148.785080 36.408543,155.622635 32.303673,152.208084 
	C32.601261,151.841629 33.058365,151.278732 33.914097,150.581711 
M50.924633,153.084457 
	C49.993793,153.315048 49.062950,153.545639 48.132111,153.776230 
	C48.305367,154.192383 48.478626,154.608521 48.651886,155.024658 
	C49.599525,154.498154 50.547161,153.971664 50.924633,153.084457 
z"/>
<path fill="#EA4A4C" opacity="1.000000" stroke="none" 
	d="
M114.388672,97.368393 
	C110.708076,97.472527 107.446808,97.472527 104.185532,97.472527 
	C104.155098,96.774628 104.124657,96.076729 104.094223,95.378830 
	C110.418236,93.727318 116.742241,92.075798 123.656586,90.270119 
	C122.467087,96.158142 118.575249,96.622185 114.388672,97.368393 
z"/>
<path fill="#0190D0" opacity="1.000000" stroke="none" 
	d="
M192.446976,105.967743 
	C192.711655,106.538422 192.515503,107.479370 192.324326,107.478363 
	C166.869095,107.344154 141.414246,107.141045 115.539337,106.727936 
	C115.119286,106.514648 115.159515,106.142769 115.159515,106.142769 
	C123.135979,106.003487 131.112350,105.754036 139.088913,105.747437 
	C156.722046,105.732849 174.355270,105.840439 192.446976,105.967743 
z"/>
<path fill="#3A3A3A" opacity="1.000000" stroke="none" 
	d="
M61.319927,156.251572 
	C59.573063,156.406097 58.138474,156.723770 56.706963,157.040771 
	C56.504593,154.088745 56.504593,154.088745 61.777348,153.030548 
	C60.337841,152.854996 58.898338,152.679459 58.093334,152.581284 
	C59.013111,152.245895 60.464191,151.508804 61.996330,151.248138 
	C62.733562,151.122696 64.312523,151.874832 64.324539,152.266006 
	C64.374763,153.900284 63.975189,155.548370 63.740494,157.191391 
	C63.037731,156.932495 62.334969,156.673615 61.319927,156.251572 
z"/>
<path fill="#169EDA" opacity="1.000000" stroke="none" 
	d="
M196.030594,110.040627 
	C196.030594,110.040627 196.497589,110.014992 196.727066,110.060020 
	C196.975449,119.410004 196.994354,128.714951 196.684525,138.523621 
	C195.976105,138.978165 195.596420,138.928986 195.216736,138.879822 
	C195.341156,129.957016 195.465561,121.034203 195.697632,111.379211 
	C195.880386,110.444893 195.955490,110.242760 196.030594,110.040627 
z"/>
<path fill="#090909" opacity="1.000000" stroke="none" 
	d="
M104.187798,154.972382 
	C107.443466,153.825012 107.443466,153.825012 107.928993,157.885742 
	C105.359276,157.069412 103.033913,156.615433 101.079132,155.507584 
	C100.596397,155.233994 101.318184,152.835052 101.486259,151.413132 
	C101.893890,151.456314 102.301514,151.499496 102.709145,151.542679 
	C102.633118,152.564240 102.557091,153.585815 102.827400,155.133484 
	C104.229416,155.757065 105.285095,155.854523 106.340775,155.951981 
	C106.335754,155.625443 106.330727,155.298920 106.325706,154.972382 
	C105.613068,154.972382 104.900436,154.972382 104.187798,154.972382 
z"/>
<path fill="#82C0E5" opacity="1.000000" stroke="none" 
	d="
M195.019012,139.123856 
	C195.596420,138.928986 195.976105,138.978165 196.640717,138.987152 
	C196.152756,140.217102 195.379883,141.487244 194.291870,142.862488 
	C193.767822,142.653564 193.558945,142.339554 193.089615,141.895233 
	C193.493210,140.965912 194.157242,140.166901 195.019012,139.123856 
z"/>
<path fill="#A1D4F0" opacity="1.000000" stroke="none" 
	d="
M114.820107,106.082916 
	C115.159515,106.142769 115.119286,106.514648 115.073166,106.695808 
	C114.863167,107.187614 114.699287,107.498260 114.020126,107.955368 
	C113.090874,108.412727 112.676910,108.723625 111.994408,109.053864 
	C111.546387,109.072708 111.366898,109.072205 111.187416,109.071701 
	C111.187416,109.071701 111.122292,108.679527 111.352745,108.297813 
	C112.093056,107.258873 112.602921,106.601639 113.112778,105.944412 
	C113.568748,105.970634 114.024727,105.996849 114.820107,106.082916 
z"/>
<path fill="#B1B1B1" opacity="1.000000" stroke="none" 
	d="
M103.908585,154.837646 
	C104.900436,154.972382 105.613068,154.972382 106.325706,154.972382 
	C106.330727,155.298920 106.335754,155.625443 106.340775,155.951981 
	C105.285095,155.854523 104.229416,155.757065 103.118340,155.307343 
	C103.251747,154.871048 103.440559,154.786987 103.908585,154.837646 
z"/>
<path fill="#0198D5" opacity="1.000000" stroke="none" 
	d="
M112.760956,105.867592 
	C112.602921,106.601639 112.093056,107.258873 111.327530,108.100647 
	C111.044197,107.751526 111.016548,107.217865 110.984055,106.284317 
	C111.455856,105.853218 111.932487,105.821999 112.760956,105.867592 
z"/>
<path fill="#0198D5" opacity="1.000000" stroke="none" 
	d="
M32.065979,136.262421 
	C32.220020,136.280273 32.327766,136.533585 32.286919,136.874908 
	C32.138332,136.962921 32.019680,136.497879 32.065979,136.262421 
z"/>
<path fill="#0198D5" opacity="1.000000" stroke="none" 
	d="
M36.742981,106.044754 
	C36.748333,106.206085 36.512764,106.349007 36.171021,106.362076 
	C36.064846,106.232216 36.502056,106.026337 36.742981,106.044754 
z"/>
<path fill="#0198D5" opacity="1.000000" stroke="none" 
	d="
M32.095589,111.268486 
	C32.302242,111.197311 32.467152,111.346161 32.586868,111.525223 
	C32.613811,111.565529 32.483013,111.711288 32.273262,111.888359 
	C32.121693,111.968216 32.037506,111.499435 32.095589,111.268486 
z"/>
<path fill="#E5F3F7" opacity="1.000000" stroke="none" 
	d="
M59.958599,132.013565 
	C60.014626,131.255234 60.070656,130.496902 60.104012,128.902664 
	C60.090607,123.055496 60.099876,118.044228 60.109146,113.032967 
	C63.671638,116.646584 67.268585,120.227135 70.782410,123.887466 
	C72.595886,125.776566 74.261665,127.807442 76.965210,130.876587 
	C76.965210,124.158730 76.965210,118.727577 76.965210,113.296425 
	C77.502495,113.218628 78.039780,113.140831 78.577065,113.063034 
	C79.108940,115.336533 79.640823,117.610039 80.367035,120.714188 
	C87.095306,112.992676 94.263634,107.930626 102.716866,117.423279 
	C106.487808,121.657906 106.002487,128.873291 102.298195,133.051483 
	C98.993088,136.779419 94.623627,138.463684 90.188553,136.637497 
	C86.437820,135.093079 83.367424,131.896423 79.769775,129.265625 
	C79.614578,131.725128 79.464729,134.099716 79.254158,137.436707 
	C73.726524,131.245377 68.819031,125.748650 62.789940,118.995651 
	C62.789940,125.802902 62.789940,131.200623 62.789940,136.598358 
	C62.215244,136.664841 61.640549,136.731323 61.065857,136.797806 
	C60.752548,135.772690 60.439236,134.747559 60.090050,133.111252 
	C60.054173,132.500061 59.958599,132.013565 59.958599,132.013565 
M96.675797,133.723877 
	C101.779205,130.433182 103.587265,125.947792 101.565521,121.135406 
	C99.820152,116.980881 96.606918,114.997482 92.077583,115.542389 
	C87.033318,116.149239 83.558090,120.712524 84.120895,125.804634 
	C84.772224,131.697556 89.047676,134.667267 96.675797,133.723877 
z"/>
<path fill="#E9F4F9" opacity="1.000000" stroke="none" 
	d="
M57.921818,129.014069 
	C56.819920,133.210556 55.327263,136.889389 50.026058,137.178314 
	C43.703175,137.522934 40.271454,134.676880 40.033314,128.294281 
	C39.884666,124.310265 39.923031,120.314095 40.044262,116.328453 
	C40.078865,115.190681 40.696758,114.070656 41.047184,112.942490 
	C41.686806,113.024971 42.326424,113.107452 42.966045,113.189926 
	C42.966045,118.190620 42.847923,123.194878 42.999100,128.190994 
	C43.151802,133.237640 46.834446,136.219635 50.821190,133.946365 
	C52.877998,132.773544 54.255287,129.371231 54.750381,126.751541 
	C55.418129,123.218269 54.819363,119.461243 55.036919,115.816521 
	C55.092419,114.886688 56.176579,114.018265 57.289261,113.563637 
	C57.834206,119.008461 57.878010,124.011261 57.921818,129.014069 
z"/>
<path fill="#0198D5" opacity="1.000000" stroke="none" 
	d="
M58.261383,129.012619 
	C57.878010,124.011261 57.834206,119.008461 57.698387,113.553696 
	C58.162453,113.072975 58.718533,113.044212 59.691879,113.024208 
	C60.099876,118.044228 60.090607,123.055496 60.019981,128.529572 
	C59.506065,128.998657 59.053505,129.004913 58.261383,129.012619 
z"/>
<path fill="#DBEBF3" opacity="1.000000" stroke="none" 
	d="
M111.086281,109.526459 
	C111.366898,109.072205 111.546387,109.072708 111.904892,109.512924 
	C111.993225,119.643730 111.902527,129.334824 111.811836,139.025909 
	C111.811836,139.025909 111.466461,139.029541 111.293846,139.026291 
	C111.075874,129.342438 111.030510,119.661827 111.086281,109.526459 
z"/>
<path fill="#0198D5" opacity="1.000000" stroke="none" 
	d="
M59.795853,132.100128 
	C59.958599,132.013565 60.054173,132.500061 60.006241,132.743271 
	C59.849907,132.719879 59.741505,132.453293 59.795853,132.100128 
z"/>
<path fill="#27A2DA" opacity="1.000000" stroke="none" 
	d="
M147.990784,115.025215 
	C148.751022,114.958023 149.511246,114.890831 150.778198,115.152893 
	C151.595718,115.638245 151.906525,115.794342 152.217316,115.950439 
	C152.974365,117.916229 153.731430,119.882011 154.857391,122.805702 
	C155.049088,119.801529 155.184250,117.683258 155.346466,115.141006 
	C156.748291,115.046738 158.122864,114.954308 159.770599,114.843506 
	C159.770599,121.495102 159.770599,127.753349 159.770599,133.985153 
	C154.672607,135.089493 154.672607,135.089493 151.762695,126.163696 
	C151.762695,128.104233 151.619949,130.057831 151.796173,131.982224 
	C152.060104,134.864365 150.394180,134.888443 148.295746,134.203949 
	C148.096863,131.851807 150.692947,129.326660 147.086212,128.017883 
	C147.033371,124.301651 146.980530,120.585411 147.220123,116.313965 
	C147.749512,115.564819 147.908920,115.320305 147.990784,115.025215 
z"/>
<path fill="#21A1D9" opacity="1.000000" stroke="none" 
	d="
M119.014442,130.000076 
	C119.009285,127.954498 119.004128,125.908913 119.434677,123.426163 
	C121.929436,121.287758 123.988495,119.586510 126.047546,117.885269 
	C126.335121,118.704086 126.622696,119.522896 126.593750,120.715805 
	C126.041168,121.536652 125.805092,121.983406 125.569023,122.430161 
	C126.060089,122.257866 126.551155,122.085579 127.042221,121.913300 
	C127.956795,119.741158 128.871353,117.569000 129.822235,115.310593 
	C131.564896,115.390984 133.591476,115.484467 135.709412,115.582169 
	C136.083176,121.686157 136.457825,127.804817 136.860001,134.373077 
	C135.397049,134.449005 134.014664,134.520737 132.125458,134.618774 
	C132.125458,130.845062 132.125458,127.449921 132.125458,124.054787 
	C131.861206,124.036972 131.596954,124.019157 131.332703,124.001335 
	C130.878952,126.585930 130.622894,129.229080 129.882416,131.728729 
	C129.546158,132.863831 128.250153,133.714615 127.389488,134.694366 
	C126.655975,133.785248 125.731720,132.968246 125.236938,131.943832 
	C124.610413,130.646652 124.333145,129.180771 124.338608,127.393127 
	C125.689682,126.753204 126.607376,126.507797 127.525078,126.262390 
	C127.482315,125.955276 127.439552,125.648170 127.396790,125.341057 
	C126.183640,125.257477 124.970497,125.173897 123.757355,125.090317 
	C123.283180,126.515953 122.808998,127.941589 121.889832,129.666992 
	C120.634705,129.977875 119.824577,129.988983 119.014442,130.000076 
z"/>
<path fill="#169EDA" opacity="1.000000" stroke="none" 
	d="
M171.937592,116.329163 
	C175.758881,120.307480 176.676468,125.989632 174.402405,130.733398 
	C172.746750,134.187149 170.258179,135.007065 163.168396,134.258636 
	C163.168396,127.975853 163.168396,121.640251 163.168396,114.540703 
	C166.177521,115.061996 168.963806,115.544693 171.937592,116.329163 
M166.998703,125.454147 
	C167.343079,126.955673 167.687454,128.457199 168.031845,129.958725 
	C168.534683,129.773056 169.037521,129.587387 169.540359,129.401718 
	C169.220932,126.468056 168.901520,123.534393 168.582092,120.600731 
	C168.194366,120.585243 167.806625,120.569756 167.418884,120.554268 
	C167.278580,121.904083 167.138275,123.253899 166.998703,125.454147 
z"/>
<path fill="#1DA0D9" opacity="1.000000" stroke="none" 
	d="
M177.793793,126.767174 
	C178.680603,122.636024 179.456818,118.919594 180.214447,115.292122 
	C184.406235,114.061951 186.714676,114.750267 187.255295,119.473160 
	C187.814499,124.358421 189.214783,129.147415 190.439224,134.877289 
	C185.596283,133.944489 181.592697,130.987885 176.570068,135.146591 
	C177.101807,131.341934 177.392517,129.261917 177.793793,126.767174 
z"/>
<path fill="#21A1D9" opacity="1.000000" stroke="none" 
	d="
M139.345398,133.955902 
	C139.130249,127.965385 139.130249,122.319504 139.130249,116.266815 
	C140.656021,116.091393 142.040436,115.932228 143.422211,115.773361 
	C143.728470,116.500366 144.072144,116.942329 144.078506,117.389099 
	C144.142654,121.885117 144.194199,126.382225 144.161087,130.878387 
	C144.138397,133.959961 142.906265,135.597336 139.345398,133.955902 
z"/>
<path fill="#20A0D9" opacity="1.000000" stroke="none" 
	d="
M126.057381,117.469894 
	C123.988495,119.586510 121.929436,121.287758 119.513695,122.994293 
	C119.338890,120.778893 119.520767,118.558205 119.777153,115.427864 
	C122.176186,116.048271 124.121696,116.551399 126.057381,117.469894 
z"/>
<path fill="#0193CF" opacity="1.000000" stroke="none" 
	d="
M112.051231,139.338867 
	C111.902527,129.334824 111.993225,119.643730 112.173431,109.493576 
	C112.676910,108.723625 113.090874,108.412727 113.765884,108.050385 
	C113.716400,117.047287 113.435501,126.096855 113.066208,135.142807 
	C113.004524,136.653854 112.558861,138.149200 112.051231,139.338867 
z"/>
<path fill="#20A0D9" opacity="1.000000" stroke="none" 
	d="
M118.908020,130.412048 
	C119.824577,129.988983 120.634705,129.977875 121.849968,129.944458 
	C122.362213,131.360046 122.591141,132.810135 122.449615,134.223129 
	C122.427521,134.443756 120.071381,134.857834 119.904892,134.560562 
	C119.286064,133.455658 119.130867,132.091080 118.908020,130.412048 
z"/>
<path fill="#0198D5" opacity="1.000000" stroke="none" 
	d="
M147.034607,128.421356 
	C150.692947,129.326660 148.096863,131.851807 147.956467,134.037292 
	C147.450729,132.429962 147.216858,130.627380 147.034607,128.421356 
z"/>
<path fill="#20A0D9" opacity="1.000000" stroke="none" 
	d="
M123.808472,125.408112 
	C124.970497,125.173897 126.183640,125.257477 127.396790,125.341057 
	C127.439552,125.648170 127.482315,125.955276 127.525078,126.262390 
	C126.607376,126.507797 125.689682,126.753204 124.401169,126.999161 
	C123.973434,126.575104 123.916512,126.150505 123.808472,125.408112 
z"/>
<path fill="#20A0D9" opacity="1.000000" stroke="none" 
	d="
M127.009613,121.681145 
	C126.551155,122.085579 126.060089,122.257866 125.569023,122.430161 
	C125.805092,121.983406 126.041168,121.536652 126.553970,121.046722 
	C126.830704,121.003540 126.977013,121.448990 127.009613,121.681145 
z"/>
<path fill="#0198D5" opacity="1.000000" stroke="none" 
	d="
M147.731522,115.036224 
	C147.908920,115.320305 147.749512,115.564819 147.314636,115.858589 
	C147.235229,115.654694 147.353745,115.350967 147.731522,115.036224 
z"/>
<path fill="#0198D5" opacity="1.000000" stroke="none" 
	d="
M152.122559,115.681778 
	C151.906525,115.794342 151.595718,115.638245 151.149155,115.255859 
	C151.351517,115.157433 151.689651,115.285278 152.122559,115.681778 
z"/>
<path fill="#82C0E5" opacity="1.000000" stroke="none" 
	d="
M195.793274,110.031189 
	C195.955490,110.242760 195.880386,110.444893 195.644958,110.928810 
	C195.394547,110.923874 195.270554,110.641373 195.234009,110.347992 
	C195.222305,110.254066 195.442078,110.131317 195.793274,110.031189 
z"/>
<path fill="#FEFEFE" opacity="1.000000" stroke="none" 
	d="
M51.209717,153.264801 
	C50.547161,153.971664 49.599525,154.498154 48.651886,155.024658 
	C48.478626,154.608521 48.305367,154.192383 48.132111,153.776230 
	C49.062950,153.545639 49.993793,153.315048 51.209717,153.264801 
z"/>
<path fill="#199ED9" opacity="1.000000" stroke="none" 
	d="
M96.282471,133.851349 
	C89.047676,134.667267 84.772224,131.697556 84.120895,125.804634 
	C83.558090,120.712524 87.033318,116.149239 92.077583,115.542389 
	C96.606918,114.997482 99.820152,116.980881 101.565521,121.135406 
	C103.587265,125.947792 101.779205,130.433182 96.282471,133.851349 
z"/>
<path fill="#20A0D9" opacity="1.000000" stroke="none" 
	d="
M166.998337,125.028931 
	C167.138275,123.253899 167.278580,121.904083 167.418884,120.554268 
	C167.806625,120.569756 168.194366,120.585243 168.582092,120.600731 
	C168.901520,123.534393 169.220932,126.468056 169.540359,129.401718 
	C169.037521,129.587387 168.534683,129.773056 168.031845,129.958725 
	C167.687454,128.457199 167.343079,126.955673 166.998337,125.028931 
z"/>
</svg>